<svg xmlns="http://www.w3.org/2000/svg" viewBox="0 0 154.1 215.62"><defs><style>.cls-1{fill:#956449;}.cls-2{fill:#333;}.cls-3{fill:#6b727a;}.cls-4{fill:#5a5e64;}.cls-5{fill:#f2f2f2;}</style></defs><title>business-man</title><g id="Layer_3" data-name="Layer 3"><path class="cls-1" d="M821.41,336.83a16.41,16.41,0,0,0-.84,7.35l11.78-1.6-.31-1.51c.17-7.84-11.29-7.56-12,0-.45,4.82.81,7.55,3.18,11.56,2,3.47,2.7,8.13,4.68,11.85s5.51,6.8,6.76,10.68c1.62,5,.63,12.07.78,17.36.22,7.7,12.22,7.73,12,0-.16-5.43-.06-10.94-.55-16.35-.43-4.85-2.37-8.43-5.15-12.32a38,38,0,0,1-5.93-11.53,20.66,20.66,0,0,0-2.32-6c-1.44-2.14-1.71-2.49-1.45-5.23H820a11.06,11.06,0,0,0,.74,4.7c2.17,5.81,12.61,5.64,11.79-1.59A8,8,0,0,1,833,340c2.5-7.33-9.09-10.47-11.57-3.19Z" transform="translate(-778.27 -296.09)"/><path class="cls-1" d="M840.41,341.11l1.15-3.64L842,336q.72-1.87-.79.69l-4.62.6c3.34.56,5.41,1,8.83.18,3.79-.9,7.55-2,11.27-3.15,3.39-1,6.79-2.1,10.1-3.34,1.51-.57,3-1.14,4.48-1.83.65-.3,5.74-2.52,3.31-2.34l-4.24-1.76c-1.72-1.69.24,1.06.63,1.91a21.16,21.16,0,0,0,2.74,4.44c.87,1.08,2.2,2,2.81,3.24.76,1.55.51,4.06.64,5.77.59,7.65,12.59,7.72,12,0-.29-3.7.08-8.38-1.7-11.74-1.6-3-4.59-4.51-6-7.74s-3-5.88-6.87-6.12-6.8,2.92-10.17,4.29c-3.82,1.55-7.83,2.72-11.77,3.91-3.56,1.08-7.88,2.93-11.54,3-3.47.06-5.84-.78-8.44,2.28-2.2,2.58-2.84,6.46-3.84,9.61-2.34,7.38,9.24,10.54,11.57,3.19Z" transform="translate(-778.27 -296.09)"/><path class="cls-1" d="M874.44,324.79a46.14,46.14,0,0,0,1,8.28,6,6,0,0,0,7.38,4.19,6.15,6.15,0,0,0,4.19-7.38c-.11-.51-.2-1-.3-1.53-.32-1.67.09,1.24-.07-.46-.1-1-.17-2.06-.2-3.1-.07-3.13-2.7-6.14-6-6a6.1,6.1,0,0,0-6,6Z" transform="translate(-778.27 -296.09)"/><path class="cls-1" d="M878,343.5c.21,2.19.62,4,2.39,5.42,2.16,1.74,4.75,2.33,7.28.94a44.33,44.33,0,0,0,7.81-5.53L886,337.06c-2.52,5.38-5.19,10.72-7.56,16.17-1.9,4.37-1.24,8.44-4.56,12-8,8.59-6.57,19.65-6.86,30.66-.17,6.66,10.37,8.3,11.79,1.6a27.13,27.13,0,0,0,.65-6.72c-.27-7.7-12.27-7.74-12,0a9.13,9.13,0,0,1-.22,3.53L879,395.91c.14-5.27,0-10.65.45-15.91.43-4.88,4.07-6.84,6.59-10.66,2.39-3.62,1.83-7.53,3.34-11.37,2-5.05,4.66-9.93,7-14.85,2.89-6.17-4.13-11.86-9.42-7.27a30.69,30.69,0,0,1-5.38,3.65l7.27.94-.57-.46,1.76,4.24-.07-.72c-.74-7.62-12.75-7.7-12,0Z" transform="translate(-778.27 -296.09)"/><path class="cls-1" d="M840.87,393.48l.06.88,6-6-2-.27c-3.25-.43-6,3.1-6,6-.11,9.26,13.29,14.15,20.87,15l-4.24-10.25c-.54.52-1.11,1-1.69,1.46l9.42,7.27c1.39-2.25,6-2.5,8.3-3.42a17.29,17.29,0,0,0,7.8-6l-8.21,2.15.19.1-2.76-6.78,0,.24,7.38-4.19-.47-.12c-7.48-2-10.67,9.61-3.19,11.57l.47.12c2.91.77,6.82-.95,7.38-4.19l0-.24c.45-2.56-.27-5.45-2.75-6.77l-.19-.1c-3.15-1.68-6.16-.51-8.21,2.15-1.39,1.8-6.49,2.23-8.6,3.12a15.41,15.41,0,0,0-7.5,6.3c-3.81,6.16,4.43,11.36,9.42,7.28.59-.46,1.15-.95,1.69-1.46,4.24-3.86.5-9.71-4.24-10.24a14.19,14.19,0,0,1-5.16-1.88c-.94-.51-3.69-3.2-3.71-1.13l-6,6,2,.27c3.07.41,6.22-3.08,6-6l-.06-.88c-.57-7.65-12.58-7.72-12,0Z" transform="translate(-778.27 -296.09)"/><path class="cls-1" d="M833,341.56l-1.1,1.41c-4.65,5.92,3.29,14.41,8.48,8.48A60.62,60.62,0,0,1,855,339.07a55.83,55.83,0,0,1,8.65-4.23c1.24-.48,2.51-.9,3.79-1.29.76-.23,1.53-.45,2.3-.65,2.19-.45,2.07-.54-.33-.27l-4.19-4.19c-.7-1.85-.64-.87-2-.09a30.69,30.69,0,0,0-3.6,3c-2.17,1.8-4.34,3.58-6.52,5.36q-6.55,5.32-13.17,10.54c-3.59,2.83-1.41,9.05,2.64,10,5.31,1.28,9.95-2.55,14.42-5l16.34-8.88-6.06-10.36q-7.37,5.08-15,9.81c-2.41,1.48-4.83,2.93-7.28,4.36s-5.79,4.27-8.62,4.32l4.24,10.24A96.62,96.62,0,0,1,860,346c6.55-4.06.53-14.44-6.06-10.37a109.2,109.2,0,0,0-21.82,17.68c-3.5,3.68-1.09,10.33,4.24,10.24,6.8-.12,13.08-5,18.74-8.36,6.19-3.73,12.25-7.67,18.2-11.77,6.3-4.35.82-14.1-6.06-10.36l-12,6.54-5.16,2.8c-.8.44-6.52,2.77-4.31,3.31l2.65,10q11-8.72,21.86-17.7c3.2-2.67,7.19-5.67,7-10.37a7.07,7.07,0,0,0-5.32-6.81c-3.23-.75-7,.83-10,1.87a72.49,72.49,0,0,0-11.63,5.19A70.21,70.21,0,0,0,831.86,343l8.48,8.48,1.11-1.4c4.71-6-3.72-14.56-8.49-8.49Z" transform="translate(-778.27 -296.09)"/><path class="cls-1" d="M854.84,340.13C846.65,342,846,352,845.68,358.89c-.39,9.24,1.21,18.45,1.65,27.66l11.79-1.6a113.45,113.45,0,0,1-5.48-34.38c0-7.73-11.9-7.73-12,0-.23,16.1-2.74,34.81,7,48.81,4.39,6.29,14,.88,10.36-6.06-7-13.53-8.58-27.62-8.92-42.66l-11.79,1.6q3.12,13.2,7.41,26.07c2.42,7.29,14,4.17,11.57-3.19q-4.29-12.88-7.41-26.07c-1.56-6.57-11.94-5.17-11.78,1.59.39,17.23,2.51,33.25,10.56,48.72L859,393.32c-8.37-12-5.58-28.92-5.38-42.75h-12a124.77,124.77,0,0,0,5.9,37.57c2,6.19,12.13,5.45,11.79-1.59-.31-6.39-1.13-12.73-1.52-19.11a84.11,84.11,0,0,1-.13-8.55,41.5,41.5,0,0,1,.45-5l.37-1.87c.55-1.29.4-1.41-.47-.34,7.52-1.75,4.34-13.32-3.19-11.57Z" transform="translate(-778.27 -296.09)"/><path class="cls-1" d="M851.75,376.11l-.4,7.23h12c-.82-7,.38-14.4,1.66-21.32a73,73,0,0,1,2.43-9.77c.37-1.13,2.77-8.3,3.77-8.54l-5.84-1.54c-1.52-1.44-.93,1-1.09,2.21-.2,1.59-.55,3.16-.9,4.73-.7,3.09-1.51,6.16-2.36,9.21-1.61,5.71-2.86,12.69-5.67,17.93l3.58-2.76-1,.38,7.59,5.79a61.26,61.26,0,0,1,3-17.4,53.17,53.17,0,0,1,3.29-7.87c.72-1.41,2.93-6.72,4.53-7.25l-7.59-5.78c-.16,7.51-2.78,15.2-4.65,22.43-1.82,7-3.21,14.74-7.05,21l11.18,3c-2-18.3,5.62-34.88,13.37-51l-11.18-3c1,8.35,1.77,16.9-.58,25.1-2.26,7.9-6.84,14.91-11.2,21.77l11,4.62a96,96,0,0,1,11.17-25.89c4.07-6.59-6.31-12.62-10.36-6.06A107.39,107.39,0,0,0,858,382.12c-1.77,6.67,7.34,10.34,11,4.63,4.93-7.75,9.86-15.73,12.41-24.64,2.66-9.26,2.1-18.84,1-28.29-.61-5.24-8.3-9-11.18-3-8.61,17.86-17.26,36.66-15,57,.63,5.68,7.84,8.45,11.18,3,4.42-7.18,6.17-15.79,8.26-23.85,2.15-8.3,4.89-17,5.08-25.62.08-3.75-3.92-7-7.6-5.79-7.76,2.58-11.55,11.73-14.44,18.77a72.31,72.31,0,0,0-5.23,25.32c-.11,3.67,4,7.11,7.6,5.78,5.28-1.92,6-6.2,7.63-11.18,1.74-5.44,3.43-10.89,4.88-16.42,1.58-6.07,7.76-25.67-4-25.91-8.8-.18-12.93,13.77-14.71,20.33-2.61,9.6-4.72,21.16-3.56,31.08.88,7.54,11.56,7.88,12,0l.4-7.23c.44-7.72-11.57-7.7-12,0Z" transform="translate(-778.27 -296.09)"/><path class="cls-1" d="M870.5,353.8q-5.84,11.74-10.86,23.84c-1.66,4-3.8,8.18-4.87,12.35-1,4,.37,6.5,2.65,9.63,4.51,6.18,14.92.2,10.36-6.05a28.25,28.25,0,0,1-2.32-3.53l.61,4.62c1.1-6,4.35-12.07,6.76-17.63,2.52-5.79,5.22-11.51,8-17.17,3.43-6.89-6.91-13-10.36-6.06Z" transform="translate(-778.27 -296.09)"/><path class="cls-1" d="M864.4,386.1l-.33.16,3-.82,3,1.41-1.22-.94a7.08,7.08,0,0,0-1.64-.73,6.57,6.57,0,0,0-5,.67,7.36,7.36,0,0,0-2.55,2.65,10.39,10.39,0,0,0-.71,1.77c-.41,1.38.27-.77.93-1.32l2.64-1.54-.29,0h3.19l-.26-.11,2.65,1.55c1.63,1.86,1.23,2.39.87.77-.12-.54-.23-1.07-.33-1.61s-.19-1.09-.28-1.63c-.22-1.32.1.87-.07-.59-.35-3.11-2.51-6.16-6-6-3,.13-6.38,2.66-6,6,.22,1.9.47,3.8.83,5.68s.8,4.13,2.3,5.64a6.68,6.68,0,0,0,8,1.22A7,7,0,0,0,870,395a4.2,4.2,0,0,0,.45-1.23c-.1-.36-.66,1-.15.33l-2.16,2.15.25-.15-3,.82.3,0-3-.82-.82-.66a4.79,4.79,0,0,0,1.38,1,7.16,7.16,0,0,0,2,.75,8,8,0,0,0,5.32-.81c2.84-1.34,3.8-5.65,2.15-8.21a6.17,6.17,0,0,0-8.21-2.15Z" transform="translate(-778.27 -296.09)"/><path class="cls-1" d="M894,338.31c2.19-5.67,1.94.2,1.4,2.06a25.8,25.8,0,0,1-2.62,5.29,54.09,54.09,0,0,1-6.12,8.39c-1.26,1.45.85,3.58,2.13,2.12,4.26-4.86,11-12.69,10.11-19.69-.84-6.84-6.15-3.23-7.79,1-.7,1.8,2.2,2.58,2.89.79Z" transform="translate(-778.27 -296.09)"/><path class="cls-2" d="M848.48,318a19,19,0,0,1,2.15-2.15c-.48.4,0,0,.25-.15.52-.33,1-.64,1.57-.93l-7.27-.94.23.27-1.54-2.65c.76-3.24.74-4.07-.08-2.51l-.37.63-1.32,2.2-2.45,4.08a6,6,0,0,0,1.54,7.74c2.49,1.92,5.56,1.49,7.88-.47l6.9-5.82-9.42-7.27c-2.06,3.09-3.28,5.57-1.59,9.22.89,1.93,3.21,2.9,5.19,3h.2a6,6,0,1,0,0-12h-.2l5.18,3-.1-.22.81,3c-.59,2-.56,2.39.09,1.25l.78-1.18c1.66-2.48.69-6-1.54-7.74-2.49-1.92-5.56-1.48-7.88.47l-6.91,5.83,9.43,7.27c1.38-2.31,2.79-4.6,4.15-6.91,1.92-3.29,2.12-6.67-.49-9.65-1.79-2-5-2.15-7.28-.94a23,23,0,0,0-6.39,5.11c-2,2.37-2.51,6.18,0,8.48,2.25,2.07,6.29,2.54,8.48,0Z" transform="translate(-778.27 -296.09)"/><path class="cls-2" d="M844.25,312.55c-2-3.14-5.67-2.69-8.1-.35a82.85,82.85,0,0,0-7.66,9.15c-2.31,3,1.64,7.21,4.24,4.24l1.91-2.18c2.53-2.9-1.7-7.16-4.25-4.24l-1.9,2.18,4.24,4.24q2.12-2.71,4.33-5.36c.7-.82,1.41-1.64,2.12-2.45a8.18,8.18,0,0,0,1-1.12,3.89,3.89,0,0,1,.34-.36c.57-.46.08-.7-1.46-.72,2.08,3.23,7.28.23,5.18-3Z" transform="translate(-778.27 -296.09)"/><path class="cls-2" d="M834.09,314a39,39,0,0,0-7,10.56,37.36,37.36,0,0,0-1.94,5.37c-.38,1.43-.23,4.32-1.09,5.42l5,2.92.24-.81c1.08-3.71-4.71-5.3-5.79-1.59l-.24.81c-.78,2.69,3.12,5.37,5,2.92,2.13-2.75,2-6.19,3-9.43a32.09,32.09,0,0,1,7-11.93c2.6-2.84-1.64-7.1-4.25-4.24Z" transform="translate(-778.27 -296.09)"/><path class="cls-2" d="M828.88,338.31a22,22,0,0,0,4.44-5.75c1.82-3.54,1.25-4.87,6-5.07,5.79-.25,11.66.73,17.35-.78,4.46-1.18,8.07-3.93,11.66-6.71,1.91-1.47,5.87-5.27,8.22-4.33s4.48,6.07,5.81,8.11c2.1,3.22,7.3.22,5.18-3-2.75-4.22-5.76-12.18-11.95-11.58s-10.74,6.6-15.67,9.58c-7.21,4.35-15.3,2.09-23.22,2.91-2.45.26-4.8.59-6.4,2.61a8.88,8.88,0,0,0-1.29,2.94,16.8,16.8,0,0,1-4.38,6.86c-2.78,2.69,1.47,6.93,4.24,4.24Z" transform="translate(-778.27 -296.09)"/><path class="cls-2" d="M842.44,311.2l-1.57.76,3.64,4.72a41.45,41.45,0,0,1,10.12-6.89l-4.4-3.39c-.44,1.4-3,3.08-4,4-1.69,1.5-3.43,2.92-5.21,4.3l4.72,3.64,4.07-5.86c1.24-1.77-.38-4.75-2.59-4.51-5.63.59-10.5,6.55-14.54,10.09l4.25,4.24a27.85,27.85,0,0,1,6.8-5.31l-4.41-3.39c-.41,1.68-3.08,3.29-4.29,4.37L830.46,322l4.71,3.63,2.16-2.84c2.34-3.07-2.87-6.06-5.18-3L830,322.61c-2.15,2.84,2.31,5.79,4.72,3.64,3.36-3,9.22-6.47,10.37-11.07a3,3,0,0,0-4.41-3.39,33.08,33.08,0,0,0-8,6.25c-2.67,2.83,1.36,6.77,4.25,4.24q2.45-2.14,4.92-4.26c1.28-1.08,3.67-3.89,5.37-4.07l-2.59-4.52-4.07,5.86c-2.12,3,2.26,5.55,4.71,3.64,3.6-2.81,9.36-6.39,10.77-10.94.83-2.66-2.18-4.47-4.4-3.38a46.88,46.88,0,0,0-11.34,7.82c-2.63,2.43.7,6.14,3.63,4.72l1.57-.77c3.47-1.68.43-6.86-3-5.18Z" transform="translate(-778.27 -296.09)"/><path class="cls-2" d="M829,334.3c2.83-10.94,6.23-21.4,16.83-27.05,8.53-4.54,27.56-10,32.15,2.41,1.32,3.59,7.12,2,5.78-1.6-5.51-14.95-23.77-13-35.89-8.29-6.17,2.41-11.83,6-15.85,11.36-4.76,6.3-6.86,14.05-8.81,21.58-1,3.74,4.82,5.33,5.79,1.59Z" transform="translate(-778.27 -296.09)"/><path class="cls-2" d="M853.36,307.26l-.59,0,2.13.88c1.4,1.29,2.14-.8,3.06-1.91,2.44-2.94-1.73-7.2-4.24-4.24a25.64,25.64,0,0,0-3.76,5.69c-1.14,2.39,1.45,6.08,4.11,4.1a92.14,92.14,0,0,0,7.32-6.05l-5.12-2.12c-.14,2.17-2.42,4.82-3.45,6.7l-3.62,6.53c-1.62,2.93,2.29,6.13,4.71,3.63l10.65-11-4.25-4.24L850.3,317c-2,2.4.7,6.86,3.64,4.71a84.25,84.25,0,0,1,9.15-6.06L859,311.52l-4.78,6.3c-1.91,2.53,1.7,5.46,4.11,4.11a76,76,0,0,0,9.15-6.12l-4.25-4.25a19.12,19.12,0,0,1-3.14,3.09l3.64.47-.33-.42.87,2.12v-.54c0-3.86-6-3.87-6,0a4.47,4.47,0,0,0,1.21,3.08,3,3,0,0,0,3.64.47,26.81,26.81,0,0,0,4.36-4c2.54-3-1.22-6.58-4.25-4.25a64,64,0,0,1-7.93,5.19l4.1,4.1,4.79-6.3c1.92-2.54-1.7-5.43-4.11-4.11a85.83,85.83,0,0,0-9.15,6.07l3.63,4.71,10-11.75c2.47-2.9-1.52-7.05-4.25-4.24l-10.64,11,4.71,3.63,4.82-8.7c1.37-2.47,2.88-4.69,3.07-7.55s-3.33-3.78-5.12-2.13a76.3,76.3,0,0,1-6.11,5.12l4.1,4.11a20,20,0,0,1,2.82-4.48L853.72,302c-1.64,2-4.56,4.43-4.59,7.24a4.13,4.13,0,0,0,4.23,4.05c3.86.12,3.85-5.88,0-6Z" transform="translate(-778.27 -296.09)"/><path class="cls-2" d="M859.88,311.34l.34,0,2.59,4.52c.61-1,5.56-9.14,7.06-9l-2.9-2.2a7.68,7.68,0,0,1-1.1,4.84l5.59,1.51a41.22,41.22,0,0,1-.21-7.2l-5.89.79,1.71,7.75,5-2.92-6.56-6-3.64,4.72,1.34.63a3,3,0,0,0,3-5.18l-2.51-1.73-1.52,5.59a16.89,16.89,0,0,1,10.32,3l3-5.18L868.33,301l-3,5.18A49.47,49.47,0,0,1,877.35,315a3,3,0,0,0,5-1.33,5.16,5.16,0,0,0,.13-3.61l-5,2.92a34.69,34.69,0,0,1,8.95,16.46l5.48-2.31-5.14-7.76c-1.79-2.7-6.61-1.08-5.48,2.31l4.8,14.46a3,3,0,0,0,5.89-.79c.55-10-1.37-31.38-14.35-33.34-3.78-.58-5.41,5.2-1.6,5.78,5.19.78,7.06,7.19,8.3,11.53a47.9,47.9,0,0,1,1.65,16l5.9-.8-4.81-14.46-5.48,2.31,5.14,7.76a3,3,0,0,0,5.48-2.31,40.85,40.85,0,0,0-10.48-19.12c-2.14-2.22-5.7.09-5,2.92l-.12.43,5-1.32A54.44,54.44,0,0,0,868.33,301c-3.41-1.79-6.37,3.2-3,5.18l7.23,4.29c3.35,2,6.21-3.05,3-5.18a22.35,22.35,0,0,0-13.34-3.86A3,3,0,0,0,860.7,307l2.52,1.73,3-5.18-1.33-.63c-2.89-1.38-6.31,2.25-3.63,4.71l6.56,6a3,3,0,0,0,5-2.92L871.14,303c-.76-3.44-5.71-2.45-5.89.8a41.22,41.22,0,0,0,.21,7.2c.3,2.64,4.12,4.48,5.59,1.52s2.7-6.26,1.71-9.46a3.14,3.14,0,0,0-2.89-2.21c-5-.6-10,8.44-12.24,11.93-1.13,1.8.32,4.74,2.59,4.51a5.19,5.19,0,0,0,3.9-1.72c2.72-2.75-1.52-7-4.24-4.25Z" transform="translate(-778.27 -296.09)"/><path class="cls-2" d="M860.59,418.37c.37.31.48.38.31.22s-.08-.06.23.31c-.11-.21-.1-.18,0,.08s.12.29.05.07l0,.49a1.5,1.5,0,0,1,0-.3l-.07.49c.09-.3.05-.2-.13.29a3,3,0,0,0-4.71-3.64l-.93.78h4.24c-.34-.32.18.27.25.42a1.66,1.66,0,0,1,.11,1.12,3,3,0,1,0-5.78-1.59,4.4,4.4,0,0,0,1.18,4.29,3.07,3.07,0,0,0,4.24,0l.93-.78L855.87,417a5,5,0,0,0,1.69,6.56,3,3,0,0,0,4.11-1.08,3.07,3.07,0,0,0-1.08-4.1Z" transform="translate(-778.27 -296.09)"/><path class="cls-2" d="M852.16,420.09c4.18,6.76,1.88,16.85,1.57,24.5h6a60.81,60.81,0,0,1,.47-14.2c.58-3.78-5.2-5.4-5.79-1.59a68.42,68.42,0,0,0-.68,15.79c.29,3.82,5.84,3.9,6,0,.37-9.15,2.65-19.37-2.39-27.53-2-3.28-7.22-.27-5.18,3Z" transform="translate(-778.27 -296.09)"/><path class="cls-2" d="M854.79,436.58l-.37,3.74-.14,1.5c-.11,1.08-.62,1.81.61.89l4.41,1.79a5.68,5.68,0,0,1-.27-3.43,3,3,0,0,0-5.48-2.31,4.31,4.31,0,0,0-.5,4.05c1,2.56,5,3.13,5.78,0q.85-3.3,1.51-6.64c.74-3.77-5-5.38-5.79-1.59q-.66,3.35-1.5,6.64h5.78l-.1.57-5.49-2.32a11.7,11.7,0,0,0,.27,6.63c.58,1.63,2.74,3,4.41,1.79s2-2.79,2.25-4.95l.62-6.36a3,3,0,0,0-3-3,3.07,3.07,0,0,0-3,3Z" transform="translate(-778.27 -296.09)"/><path class="cls-2" d="M854.31,443.23a63.33,63.33,0,0,0,1.74,15c.57,2.41,4.35,3,5.49.72a52.38,52.38,0,0,0,5.06-16.27c.92-7.1-.13-14.2.5-21.31.31-3.49-2.12-9.27-5.56-10.77-4.19-1.84-8.19,3.7-10.13,6.56-2.17,3.2,3,6.2,5.18,3-.16.24,2.33-3.32,2.75-3.22,1.7.4,1.72,3.8,1.62,5a82.39,82.39,0,0,0,0,11,46.2,46.2,0,0,1-4.58,22.92l5.49.72a56.33,56.33,0,0,1-1.53-13.37c0-3.86-6-3.87-6,0Z" transform="translate(-778.27 -296.09)"/><path class="cls-2" d="M855.75,418.51a192.32,192.32,0,0,1-1.08,26.5c-.42,3.83,5.59,3.8,6,0a192.32,192.32,0,0,0,1.08-26.5c-.11-3.86-6.11-3.87-6,0Z" transform="translate(-778.27 -296.09)"/><path class="cls-3" d="M904,430.33l-.12.13,1.82-.24-.18-.09.69,1.7a7.22,7.22,0,0,1,.73-1.3l-2.8-.75c-.38,4-1.89,7.77-2.28,11.77-.16,1.66,2,1.79,2.8.76a28.24,28.24,0,0,0,4.2-7.91,1.51,1.51,0,0,0-1.84-1.84c-2.24.7-3.14,2.81-5.12,3.82l2.2.9c-.37-2.4,1.55-4.94,1.8-7.35a1.51,1.51,0,0,0-2.26-1.29,40.77,40.77,0,0,0-4.27,3.48l2.51,1.46a7.63,7.63,0,0,1,.74-2.25c.87-1.72-1.71-3.24-2.59-1.52a10.56,10.56,0,0,0-1,3,1.51,1.51,0,0,0,2.51,1.46,32.86,32.86,0,0,1,3.65-3l-2.25-1.3c-.3,2.91-2.16,5.09-1.69,8.15.15,1,1.43,1.28,2.2.89,1.67-.85,2.65-3,4.4-3.52L906,433.6a25.46,25.46,0,0,1-3.9,7.19l2.79.76c.39-4,1.9-7.77,2.28-11.77.15-1.57-2.06-1.92-2.79-.76a6.75,6.75,0,0,0-1,2,1.52,1.52,0,0,0,.69,1.69l.19.09a1.56,1.56,0,0,0,1.82-.23l.11-.13c1.34-1.39-.78-3.51-2.12-2.12Z" transform="translate(-778.27 -296.09)"/><path class="cls-3" d="M806,435.91l-.68-.24,4,2.31-.48-.57,2.31,4a4.15,4.15,0,0,1-.05,2.85c-.21.57-.1.35.36-.68.39-.77.77-1.55,1.18-2.31.91-1.67,1.89-3.29,2.93-4.89l-16.45-6.93q-1.65,7.69-4,15.21c-1.43,4.65,1.71,9.82,6.29,11.08a9.15,9.15,0,0,0,11.07-6.29c1.55-5,2.87-10.08,4-15.22,2.13-10-10.8-15.64-16.45-6.93-2.3,3.54-4.78,7.52-6.05,11.57-2,6.38,1,12.17,7.26,14.43,4.58,1.65,9.86-1.86,11.07-6.29,1.38-5-1.69-9.41-6.28-11.07Z" transform="translate(-778.27 -296.09)"/><path class="cls-3" d="M805.36,446.07l-.68.49,4.54-1.23-.83.09,8.68,11.39A50.21,50.21,0,0,1,823.5,446L807.05,439c-1.2,5.94-4.07,11-4.79,17.08-.44,3.86,3.12,7.72,6.61,8.68,4.06,1.12,7.85-.84,10.17-4.13l8.84-12.58L812.34,439c-2.52,5.27-8.42,13.28-6.08,19.28s10,9.37,15,4l8-8.63-15-8.75c-1.18,5.45-4.25,10.47-6.66,15.46-5,10.34,9.37,19.05,15.55,9.08a90,90,0,0,0,6.58-13.22c1.68-4.08-1.5-9.12-5.22-10.62-4.37-1.76-8.58-.08-11.23,3.69q-3.68,5.2-7.2,10.5c-6.45,9.67,9.13,18.69,15.54,9.09q3.52-5.31,7.2-10.51l-16.45-6.93a63.12,63.12,0,0,1-4.77,8.92l15.55,9.08c3-6.34,7-12.83,8.47-19.76,1.79-8.33-8.58-15.7-15-8.76l-8,8.64,15,4-.27-.68v4.79c1-3.21,3.09-6.51,4.53-9.53A9,9,0,0,0,812.34,439l-8.85,12.57,16.77,4.54c.49-4.19,3.3-8.11,4.14-12.29,2.1-10.36-10.4-15.07-16.45-6.94A68.15,68.15,0,0,0,799.71,452c-2.07,5.08,3.26,12,8.68,11.39,2.24-.25,4.16-.46,6.05-1.8,4-2.82,5.84-7.86,3.23-12.32-2.29-3.91-8.33-6.06-12.31-3.23Z" transform="translate(-778.27 -296.09)"/><path class="cls-3" d="M807.35,447.05l-.63,0,4.55,1.23-.53-.4,3.23,3.23-.3-.61L814.9,455c0,.86.14.59.48-.82l.92-2.5,1.85-5c3.55-9.58-11.72-15.88-16.45-6.93l-6,11.38,16.45,6.93c1.42-4.36,2.93-9,3-13.63.1-6.92-6.81-11.07-13.11-9.26-4.88,1.39-7.78,6-10.2,10.08a86.29,86.29,0,0,0-6.44,14c-3.5,9.54,11.89,16,16.45,6.94a46.77,46.77,0,0,0,2.65-6.39c1.49-4.63-1.75-9.83-6.29-11.08A9.16,9.16,0,0,0,787.12,455a7,7,0,0,1-.83,2.09L802.74,464a56,56,0,0,1,3.34-7.41c.62-1.15,1.28-2.28,2-3.4.46-.74.93-1.48,1.41-2.2a3.28,3.28,0,0,1-1.74,1.32h-4.79l.63.17-5.37-4.14.18.39-1.23-4.55c0,3-1.43,6.27-2.34,9.08-3.14,9.65,11.68,16,16.45,6.93l6-11.38-16.45-6.93c-1.44,3.88-3.94,8.39-3.88,12.59.08,6.05,4.54,10.23,10.43,10.55,4.86.25,9-4.32,9-9,0-5.09-4.12-8.75-9-9Z" transform="translate(-778.27 -296.09)"/><path class="cls-3" d="M802.7,462.68c.42-6.27,2-12.55,3.14-18.73l1.57-8.59.87-4.77c.08-.46,1.16-5,.37-3.36l-3.23,3.23q-1.8.21-.09,0c.67-.06,1.35-.15,2-.25a26.66,26.66,0,0,0,4.41-.95,61.52,61.52,0,0,0,8.31-3.57c3.61-1.76,9.43-5.45,13.33-5.16l-4.54-1.22.9.66c3.9,2.9,10,.65,12.31-3.23,2.68-4.58.69-9.41-3.23-12.31-6.35-4.7-15.57.12-21.81,2.84-3.36,1.47-6.57,3.49-10.06,4.64s-7,.65-10.13,2.61c-6.77,4.17-6.56,14.78-7.83,21.75-1.59,8.72-3.71,17.53-4.31,26.38-.79,11.56,17.21,11.51,18,0Z" transform="translate(-778.27 -296.09)"/><path class="cls-3" d="M821.19,413c-6.62,6.7-7.89,15.3-11.83,23.44l16.45,6.93a106.36,106.36,0,0,1,7.33-20l-16.45-6.93-15,42.36,16.45-2.15c.22,2.25.43,2.64.64,1.15.17-.83.38-1.65.6-2.46.44-1.63,1-3.26,1.55-4.84a49.93,49.93,0,0,1,4.32-8.46l-14.14,1.82.75.79-2.32-4c.22-1.58.2-1.75-.06-.49-.18.82-.39,1.64-.62,2.45-.37,1.35-.78,2.69-1.24,4a57.49,57.49,0,0,1-3.45,7.89c-5.32,10.27,10.21,19.38,15.55,9.08,4.59-8.86,12.32-23.78,4.12-32.5-4-4.3-11.21-3-14.14,1.82-5.42,8.92-12.19,22.56-7.1,32.78,3.71,7.46,14.07,4.59,16.45-2.15l15-42.36c3.35-9.5-12.21-16.25-16.45-6.93-3.6,7.9-7.18,15.84-9.15,24.33-2.2,9.47,11.81,16.52,16.45,6.93,3-6.21,4.06-14.77,9-19.79,8.15-8.25-4.57-21-12.73-12.73Z" transform="translate(-778.27 -296.09)"/><path class="cls-3" d="M793.66,453.19l-5.59,16.3,17.36,4.79,2.41-16c.72-4.8-1.2-9.67-6.29-11.07a9.13,9.13,0,0,0-11.07,6.29l-5.25,18,17.68,2.39A116.41,116.41,0,0,1,806,455.3c2.79-11.27-13.91-15.84-17.36-4.78-2.57,8.25-4.76,16.6-6.91,25l17.36,4.79,3.22-21c.74-4.8-1.22-9.68-6.29-11.07A9.11,9.11,0,0,0,785,454.53c-2.49,10.07-3.5,20.4-4.44,30.71-.43,4.85,4.45,9,9,9,5.24,0,8.57-4.13,9-9,.79-8.74,1.68-17.38,3.8-25.92L785,454.53l-3.22,21c-.74,4.8,1.22,9.68,6.28,11.07a9.12,9.12,0,0,0,11.08-6.28c2.15-8.37,4.34-16.73,6.91-25l-17.36-4.78a146.85,146.85,0,0,0-3.76,23.31c-.87,10.36,14.91,11.86,17.67,2.39l5.26-18-17.36-4.78-2.41,16c-1.69,11.27,13.52,16,17.36,4.79L811,458c3.76-11-13.62-15.7-17.36-4.79Z" transform="translate(-778.27 -296.09)"/><path class="cls-3" d="M782.23,473.44,780.72,479l17.67,2.39.53-5.09c1-10-16.27-12.44-17.68-2.39-1.1,7.93-5,15.44-1,23.31,4.7,9.27,13.63,9.54,22.52,6.88,16.42-4.89,33.43-9.3,47.65-19.23,4-2.78,5.82-7.88,3.23-12.31-2.3-3.94-8.31-6-12.31-3.23-9.48,6.62-19.7,10.09-30.64,13.51-1.45.46-17.15,4.72-17.13,5.17l2.81,1.29a.78.78,0,0,1,0-.58c.07-.07.63-3.09.49-2.51.61-2.52,1.4-4.94,1.76-7.52l-17.68-2.39-.53,5.09c-1.06,10.26,15.08,11.95,17.68,2.39l1.52-5.55c3-11.19-14.31-16-17.36-4.79Z" transform="translate(-778.27 -296.09)"/><path class="cls-3" d="M802.27,479.43l-2.13.52,10.17,13.22a48.29,48.29,0,0,1,15.47-13.7l-10.91-14.14q-5.55,6.29-11.6,12.09l14.14,10.91a71.81,71.81,0,0,1,7-10.42,26.47,26.47,0,0,1,3.57-4c.28-.21-1.13-1,.93.56,3.92,2.89,10,.66,12.31-3.23,2.68-4.57.7-9.42-3.23-12.31-15.57-11.47-29.43,8.6-36.12,20.35-5.08,8.92,6.74,18,14.14,10.91q6.06-5.81,11.6-12.09c6.59-7.46-1.71-19.43-10.91-14.14a69.44,69.44,0,0,0-21.93,20.16c-4.82,6.74,3.12,14.95,10.17,13.22l2.12-.52c11.25-2.75,6.49-20.11-4.78-17.35Z" transform="translate(-778.27 -296.09)"/><path class="cls-3" d="M819.12,430.11c1.26,2.4,2,6.12,2.55,9.26,1.87,9.89,18.43,7.74,17.68-2.39a120.62,120.62,0,0,0-2.85-18.82l-16.45,6.93a31.31,31.31,0,0,1,1.2,2.92c1.67,4.56,6.11,7.65,11.07,6.29,4.4-1.21,8-6.49,6.29-11.07q-1.35-3.68-3-7.22c-1.86-4-7.48-5.33-11.23-3.68a9.05,9.05,0,0,0-5.22,10.61,89,89,0,0,1,2.21,14L839,434.59A47.66,47.66,0,0,0,834.66,421c-2.25-4.3-8.26-5.6-12.31-3.23a9.18,9.18,0,0,0-3.23,12.32Z" transform="translate(-778.27 -296.09)"/><path class="cls-3" d="M824.68,428.19q7.23,16.2,15.54,31.88L855.77,451a80,80,0,0,1-10.58-26.45l-17.36,4.78,9,35.4,17.36-4.78c-3.08-7.85-4.72-16-6.3-24.29-.79-4.13-1.57-8.26-2.57-12.34-.79-3.17-2.75-7-2.62-10.13.45-11.58-17.55-11.56-18,0-.19,4.61,1.66,8.79,2.82,13.17,1.07,4.06,1.88,8.19,2.68,12.31,1.7,8.84,3.33,17.65,6.63,26.06,4.15,10.55,20.29,6.71,17.36-4.78l-9-35.4c-2.88-11.28-19.77-6.49-17.36,4.78a94.86,94.86,0,0,0,12.39,30.76c6.2,9.8,21,1.17,15.55-9.09q-8.32-15.68-15.55-31.88c-2-4.44-8.44-5.49-12.31-3.23-4.57,2.68-5.22,7.86-3.23,12.32Z" transform="translate(-778.27 -296.09)"/><path class="cls-3" d="M826.43,426.46c2.89,13,11.45,23,18.81,33.68,6.51,9.44,21.21,1.2,15.54-9.08a193.43,193.43,0,0,1-10.69-22.54c-1.77-4.52-6-7.67-11.07-6.28-4.31,1.18-8.07,6.52-6.28,11.07a226.13,226.13,0,0,0,12.5,26.83l15.54-9.08c-6.4-9.29-14.48-18.09-17-29.38s-19.88-6.52-17.36,4.78Z" transform="translate(-778.27 -296.09)"/><path class="cls-3" d="M827,436.8q-.39,12.39.44,24.75l17.68-2.39a20.09,20.09,0,0,1-1.24-8.51l-16.77,4.54c4.44,6.54,7.32,13.82,12.95,19.55,8.13,8.28,20.85-4.45,12.73-12.72-4.42-4.5-6.62-10.74-10.14-15.92a9.08,9.08,0,0,0-16.77,4.55,33.57,33.57,0,0,0,1.88,13.29c1.5,4.21,5.26,7.14,9.88,6.45,4.15-.63,8.1-4.31,7.8-8.84q-.82-12.37-.44-24.75c.36-11.59-17.64-11.58-18,0Z" transform="translate(-778.27 -296.09)"/><path class="cls-3" d="M832.22,474.7a15.45,15.45,0,0,0,7.12,9.25,9.39,9.39,0,0,0,6.94.91,9,9,0,0,0,6.29-11.07,9.33,9.33,0,0,0-4.14-5.38,6.65,6.65,0,0,1-.76-.5l1.82,1.41a7.1,7.1,0,0,1-1.13-1.13l1.41,1.82a6.57,6.57,0,0,1-.81-1.38l.91,2.15a6.69,6.69,0,0,1-.29-.86,9.33,9.33,0,0,0-4.14-5.38,9.18,9.18,0,0,0-6.93-.91,9.06,9.06,0,0,0-5.38,4.14,9.35,9.35,0,0,0-.91,6.93Z" transform="translate(-778.27 -296.09)"/><path class="cls-3" d="M838.5,487.4a43.63,43.63,0,0,0,11.16,3.78c1.79.36,3.59.66,5.36,1.08.89.21,1.76.44,2.62.71,1.71.73,1.72.57,0-.5l-1.4-10.9-.1.15,10.16-4.14-.14,0c-11.28-2.58-16.09,14.77-4.79,17.36l.15,0a9.3,9.3,0,0,0,10.16-4.14l.1-.15c2.18-3.43,1.27-8.06-1.41-10.9-5.79-6.15-15.81-4.37-22.8-7.89-4.34-2.19-9.75-1.15-12.31,3.22-2.34,4-1.13,10.12,3.22,12.32Z" transform="translate(-778.27 -296.09)"/><path class="cls-3" d="M852.31,492.13c.79,0,3.52,1.46,4.89,1.79,1.65.4,3.37.46,5,.83a34.2,34.2,0,0,1,9.86,3.68l4.54-16.78a15,15,0,0,1-5.56-1.23c-4.43-2-9.68-1.27-12.31,3.23-2.26,3.86-1.22,10.3,3.22,12.32a39.18,39.18,0,0,0,14.65,3.68c9.12.48,12-12.41,4.54-16.77A50.47,50.47,0,0,0,867,477.39c-2.13-.48-4.37-.52-6.45-1.21-2.87-1-5.16-1.93-8.25-2.05-11.59-.48-11.57,17.52,0,18Z" transform="translate(-778.27 -296.09)"/><path class="cls-3" d="M877.57,500.05a15.17,15.17,0,0,0,2.58,1.6,35.86,35.86,0,0,0,5.36,2.14c3.57,1.13,7.27,1.95,10.89,2.91s7.36,2.13,11.08,2.94c3.21.7,6.18.16,9.16.49l-6.37-15.37-.67.33c-4.4,2.07-5.52,8.39-3.23,12.32,2.65,4.52,7.89,5.27,12.32,3.23,4.14-1.92,9-3.36,11.65-7.35s1.87-7.56,1.59-12c-.75-11.5-18.75-11.58-18,0a25.52,25.52,0,0,0,.41,3.71c.19,2.08.35,1.8.46-.83L918,491c-2.46,1.81-5.68,2.85-8.43,4.12l9.09,15.55a15.14,15.14,0,0,0,4.31-3.15c6-5.95,1-14.55-6.36-15.36-1.72-.19-3.44.59-5.06.39,2.12.26-3.22-1.27-3-1.22l-11.08-2.94c-3.28-.87-6.62-1.52-9.64-3.06-3.5-1.78-6.17-3.24-10.28-3.25-11.58-.05-11.6,17.95,0,18Z" transform="translate(-778.27 -296.09)"/><path class="cls-3" d="M899,431.46l.88.22-4-2.31C901.15,435.29,904,445,906,452.45l17.36-4.78q-3.12-10.07-7.19-19.77c-3.94-9.4-16.55-8.07-17.68,2.39-.56,5.28,1.56,10.43,2.74,15.5a118.33,118.33,0,0,1,2.46,14.6l11.39-8.68-1.08-.22,4,2.31,0,.15c-5.16-10.38-20.69-1.27-15.54,9.08a11.38,11.38,0,0,0,7.84,6c5.16,1.08,12-2.48,11.39-8.68-.55-5.31-1.27-10.61-2.33-15.84-.92-4.5-3.36-9.69-2.87-14.26l-17.67,2.4q4.07,9.71,7.18,19.76c3.42,11,20.3,6.48,17.36-4.78a98.35,98.35,0,0,0-7.09-18.89c-2.73-5.5-6.07-13-12.52-14.67-11.23-2.83-16,14.53-4.78,17.35Z" transform="translate(-778.27 -296.09)"/><path class="cls-3" d="M915.21,447.17l-1.44-2.26c-3.8-5.94-15-6-16.45,2.15a96,96,0,0,1-5.63,19.73l16.45-2.15c0,1.24.06,1.57.07,1l.76-3.79,1.13-5.67L912.76,443c1.08-5.39-2.47-11.73-8.68-11.39-11.05.6-16.65,12.24-22.59,20.17H897c.74,1.13-.51,3,.45.78a42.64,42.64,0,0,0,1.28-4.39c.8-2.63,1.66-5.23,2.58-7.82,1.78-5,3.81-9.92,6.07-14.75,4.88-10.46-9-18.76-15.54-9.09q-9.23,13.56-17.52,27.71l15.55,9.08a202.61,202.61,0,0,0,9.94-23.66c1.29-3.73-.86-8.25-4.14-10.17-3.7-2.16-7.75-1.12-10.9,1.41A41.41,41.41,0,0,0,871,442.26c-3.1,11.18,14.26,15.95,17.36,4.79a25.33,25.33,0,0,1,9.19-13.49l-15-8.76a165.16,165.16,0,0,1-8.13,19.37c-5.11,10.29,9.63,19.18,15.55,9.08q8.28-14.14,17.51-27.7l-15.54-9.09A207.54,207.54,0,0,0,882.79,439c-2.3,6.94-5.68,15-1.3,21.84,3.94,6.11,11.49,5.43,15.54,0l5.45-7.28c.73-1,1.43-2,2.18-2.91,1.44-1.82,2-1.2-.58-1.06l-8.68-11.39-3.79,18.91c-1.11,5.54-2.71,11.69,1,16.65,4.86,6.5,13.44,5.31,16.45-2.15a96.83,96.83,0,0,0,5.63-19.73L898.23,454l1.44,2.26c6.22,9.73,21.81.71,15.54-9.09Z" transform="translate(-778.27 -296.09)"/><path class="cls-3" d="M879.73,414.82q-7.38,19.55-13.34,39.58c-2.83,9.54,12.15,16.39,16.45,6.94l7.28-16c2-4.43,1.26-9.69-3.23-12.32-4-2.32-10.16-1.15-12.32,3.23A209.49,209.49,0,0,0,863,464.85c-3.11,9.73,11.51,15.84,16.45,6.94a42.12,42.12,0,0,0,5-16.74c.66-6.56-8.23-11.55-13.54-7.77a14.94,14.94,0,0,0-6.33,8.44c-3.32,11.12,14,15.87,17.36,4.78l.22-.15L879,463.58l1-.76-13.54-7.77a19.63,19.63,0,0,1-2.59,7.65l16.45,6.94a178,178,0,0,1,9.76-24.31l-15.55-9.09-7.27,16,16.45,6.94q6-20,13.34-39.59c1.72-4.55-1.91-9.87-6.29-11.07-5-1.39-9.34,1.72-11.07,6.29Z" transform="translate(-778.27 -296.09)"/><path class="cls-3" d="M858.64,458.49,856,461l14.13,10.9,5.54-11.44c2-4,1.44-8.8-2.32-11.61-3.29-2.46-8.94-2.81-11.82.71a47.92,47.92,0,0,0-9.15,16.81c-2.39,7.87,6.52,13.63,13.22,10.16,5.08-2.63,7.69-7.49,12-10.93l-15.37-6.36c-.83,7.35-3.53,13.73-.11,20.83,3.26,6.75,11.87,4.85,15.55,0,3-3.94,5.77-8.33,9.12-11.94l-4,2.31.72-.25-6.93-.91.7.41-3.23-3.23a5.85,5.85,0,0,1,.44,1.91c.47,4.84,3.8,9,9,9,4.5,0,9.48-4.13,9-9-.75-7.69-4.4-18.52-14.49-15.29-4.26,1.37-6.38,5.33-8.93,8.7l-7,9.21h15.55c.68,1.42-.14,2.45.63.56a20.35,20.35,0,0,0,.81-4.11c.47-2.72.81-5.46,1.12-8.2.39-3.44-2.57-7-5.53-8.22-3.64-1.47-6.86-.49-9.83,1.86s-5,6.33-8.4,8.11l13.22,10.16a25.48,25.48,0,0,1,4.53-8.87l-14.13-10.9-5.54,11.44c-4.33,8.94,6.48,18.33,14.14,10.91l2.62-2.55c8.33-8.08-4.4-20.8-12.72-12.73Z" transform="translate(-778.27 -296.09)"/><path class="cls-3" d="M866.62,479.59a69.24,69.24,0,0,0,21.71,8.56c4.76,1,9.73-1.39,11.07-6.29,1.23-4.45-1.5-10.08-6.28-11.07a53.88,53.88,0,0,1-17.41-6.74c-10-6-19,9.56-9.09,15.54Z" transform="translate(-778.27 -296.09)"/><path class="cls-3" d="M873.57,487.15a62,62,0,0,0,20.28,6.74c4.8.68,9.66-1.17,11.07-6.29,1.16-4.21-1.44-10.39-6.29-11.07a48.67,48.67,0,0,1-16-4.92,9.19,9.19,0,0,0-12.31,3.23c-2.37,4.05-1.09,10.05,3.23,12.31Z" transform="translate(-778.27 -296.09)"/><path class="cls-3" d="M890.12,487.28l8.29,5.59c3.91,2.63,10.14.88,12.31-3.23a9.22,9.22,0,0,0-3.23-12.32l-8.29-5.58c-3.91-2.63-10.14-.88-12.31,3.23a9.21,9.21,0,0,0,3.23,12.31Z" transform="translate(-778.27 -296.09)"/><path class="cls-3" d="M897.88,486.45A23.06,23.06,0,0,0,908,497.1a9.14,9.14,0,0,0,9.08,0c2.46-1.44,4.86-4.74,4.46-7.77-.65-4.85-1.39-9.66-2.43-14.45L908,486c-1.11-.51-1.22-.52-.35,0-.92-.74-1-.76-.33-.07a9.07,9.07,0,0,0,12.73,0,9.21,9.21,0,0,0,0-12.73,17.82,17.82,0,0,0-7.27-4.53c-2.93-1.09-6.64.2-8.76,2.32a9.25,9.25,0,0,0-2.31,8.76c.4,1.84.77,3.68,1.11,5.54.16.93.32,1.85.46,2.79.05.29.42,2.88.22,1.33L917,481.56a18.18,18.18,0,0,1-1.88-1.15c1.63,1.14-.12-.29-.38-.54-1.22-1.21.42,1.15-.36-.53-.31-.67-.7-1.29-1-2-1.91-4.32-8.54-5.66-12.31-3.23-4.47,2.89-5.28,7.69-3.23,12.31Z" transform="translate(-778.27 -296.09)"/><path class="cls-3" d="M923.68,482.63l-1.63-13.21-17.68,2.39a64.9,64.9,0,0,1,2.69,10.06c.86,4.64,6.72,7.69,11.07,6.28,5-1.61,7.21-6.1,6.29-11.07A67.22,67.22,0,0,0,921.73,467c-1.5-4.26-5.25-7.07-9.87-6.44-4,.53-8.35,4.39-7.81,8.84l1.63,13.21c.57,4.65,3.73,9.23,9,9,4.38-.2,9.62-4,9-9Z" transform="translate(-778.27 -296.09)"/><path class="cls-3" d="M911.93,491.22a9.74,9.74,0,0,0,5.66,1.55c3.66,0,8-2.75,8.67-6.6.57-3.1,1-6.21,1.28-9.34l-17.68,2.39c.6,2.48-.26,5.21.51,7.81a12.72,12.72,0,0,0,6.26,7.69c5.91,3,13.63-.66,13.54-7.78-.1-8.41,1.27-18.7-1.2-26.81-.83-2.73-2.7-5.11-3.47-7.74-.51-1.72-.13-3.79-.63-5.57a15,15,0,0,0-3.54-6c-7.62-8.75-20.3,4-12.72,12.73l.78.89-2.32-4c.95,2.33.49,5.09,1.23,7.55.8,2.65,2.81,4.89,3.54,7.5.78,2.77.16,6.87.19,9.73l.14,11.65,13.54-7.77q2.09,5.38,2.06,2.5c0-.71.08-1.42.13-2.12a21.61,21.61,0,0,0-.68-5.12c-2.54-10.44-16.81-7.21-17.68,2.4-.15,1.57-.35,3-.63,4.55l8.68-6.61H917l4.54,1.23-.5-.33c-9.73-6.35-18.76,9.23-9.09,15.54Z" transform="translate(-778.27 -296.09)"/><path class="cls-3" d="M876.19,414.05c-1.61,12.41-6,24.06-10.57,35.65-1.77,4.53,2,9.88,6.29,11.08,5.1,1.4,9.29-1.75,11.07-6.29,5.21-13.31,9.37-26.23,11.21-40.44.63-4.83-4.58-9-9-9-5.38,0-8.37,4.15-9,9Z" transform="translate(-778.27 -296.09)"/><path class="cls-3" d="M870.27,433.37c-1.9,3.75-3.57,7.58-5.14,11.47l17.36,4.79,11-32.13c3.76-11-13.62-15.7-17.35-4.79l-11,32.13c-1.57,4.6,1.81,9.84,6.29,11.07,5.14,1.41,9.25-1.76,11.07-6.28,1-2.45,2.13-4.82,3.32-7.17,5.23-10.31-10.29-19.43-15.54-9.09Z" transform="translate(-778.27 -296.09)"/><path class="cls-3" d="M893.58,415.82l.32-.77-4.14,5.38-4.57.19,1.63.92a33.57,33.57,0,0,0,4.07,2.29l7.32,4.11c1.65.94,4,1.83,5.18,3.39s1.25,4.24,1.64,5.91q4,17.11,7.88,34.25c2.6,11.29,20,6.51,17.36-4.78l-6.13-26.65c-1.7-7.36-2.56-16.2-8.23-21.78-5.39-5.3-13.42-8.71-20-12.28-7.73-4.2-15.93-4-19.68,5-1.86,4.49,2,9.89,6.29,11.07,5.17,1.42,9.2-1.77,11.07-6.29Z" transform="translate(-778.27 -296.09)"/><path class="cls-3" d="M920.44,440.72a59.67,59.67,0,0,0,.61-13.74l-17.68,2.39a114.82,114.82,0,0,1,5.37,19.23c.77,4.8,6.75,7.48,11.07,6.29,5.11-1.41,7.06-6.26,6.28-11.07a114,114,0,0,0-5.36-19.24c-1.47-4.21-5.29-7.13-9.88-6.44-4.08.61-8.2,4.31-7.8,8.84a40,40,0,0,1,0,8.95c-.67,4.81,1.17,9.67,6.29,11.07,4.21,1.16,10.39-1.44,11.07-6.28Z" transform="translate(-778.27 -296.09)"/><path class="cls-1" d="M803.35,474.1a20.19,20.19,0,0,1,6.74-4.26c1.49-.57,1.41-3-.4-2.95l-.84,0,.76,2.79c2.32-1.44,11.41-5.77,13.45-1.83.61,1.19-1.17,5.56-1.61,6.87-.63,1.9-1.39,3.75-2.14,5.61l2.74-.36-.36-.67c-.91-1.7-3.5-.19-2.59,1.52l.36.66a1.52,1.52,0,0,0,2.74-.35c1.37-3.39,6.48-13.23,2.75-16.44-4.11-3.54-13.05.05-16.85,2.4a1.51,1.51,0,0,0,.75,2.8l.84,0-.4-2.94a24.17,24.17,0,0,0-8.06,5c-1.42,1.32.71,3.44,2.12,2.12Z" transform="translate(-778.27 -296.09)"/><path class="cls-1" d="M804.4,474.79a5.72,5.72,0,0,1,4.77.07c1.72.85,3.25-1.73,1.51-2.59a8.62,8.62,0,0,0-7.08-.37c-1.77.71-1,3.61.8,2.89Z" transform="translate(-778.27 -296.09)"/><path class="cls-1" d="M805.84,474.6a18,18,0,0,1,6.23,2c1.7.93,3.22-1.66,1.52-2.59a20.45,20.45,0,0,0-7-2.32c-1.89-.26-2.71,2.63-.8,2.9Z" transform="translate(-778.27 -296.09)"/><path class="cls-1" d="M809.25,475.67l9.81,5.08c1.27.65,2.9-.72,2.05-2.06-2.69-4.26-8.27-6.21-12.21-9.14l-1.15,2.74a28.63,28.63,0,0,0,7,.68,1.51,1.51,0,0,0,.4-3,6.83,6.83,0,0,0-2.64-.52,9.82,9.82,0,0,0-1.84.38v2.59a25.93,25.93,0,0,1,8.14-3.45,7.85,7.85,0,0,1,2-.33s-.49,1.45-.51,1.54c-.14.54-.47,4.33-1.22,4.45l1.9,1.45-.52-6.36a1.51,1.51,0,0,0-2.95-.39q-.83,2.43-1.48,4.9h2.89a37.42,37.42,0,0,0-1-3.89,1.52,1.52,0,0,0-2.51-.66,2.58,2.58,0,0,0-.92,1.69c-.32,1.87,2.37,2.69,2.89.8L818,471l-2.56-1.06a2.73,2.73,0,0,1-.64,2.58l2.51.66c-.26-.74,2.79-2.53,3.41-3,1.54-1.13,0-3.74-1.51-2.59-2.07,1.53-5.88,3.26-4.8,6.38a1.52,1.52,0,0,0,2.51.66,5.66,5.66,0,0,0,1.52-4.7c-.14-1.12-1.63-2.18-2.56-1.06a6.51,6.51,0,0,0-1.38,2.59l2.89.8.15-.37-2.51-.66a37.47,37.47,0,0,1,1,3.89c.29,1.49,2.53,1.37,2.89,0,.44-1.66.93-3.29,1.49-4.91l-3-.4.52,6.36a1.54,1.54,0,0,0,1.9,1.45c2.32-.38,2.52-2.71,2.92-4.65.36-1.77,1.76-5,.12-6.53-1.39-1.28-3.79-.54-5.36-.16a28.84,28.84,0,0,0-8.41,3.64,1.52,1.52,0,0,0,0,2.59c1.65,1,3.36-.27,5.2.44l.4-2.94a25.69,25.69,0,0,1-6.18-.57,1.51,1.51,0,0,0-1.15,2.74,63.26,63.26,0,0,0,5.92,3.93c2,1.14,4,2.16,5.21,4.14l2.06-2-9.81-5.08c-1.71-.89-3.23,1.7-1.52,2.59Z" transform="translate(-778.27 -296.09)"/><path class="cls-1" d="M882.63,457.75A57.6,57.6,0,0,1,885.9,467c.85,2.78,2.05,5.71,1.76,8.64-.2,1.92,2.8,1.91,3,0,.32-3.21-.94-6.41-1.87-9.44a62.4,62.4,0,0,0-3.57-9.95c-.87-1.73-3.45-.21-2.59,1.51Z" transform="translate(-778.27 -296.09)"/><path class="cls-1" d="M890.24,475.61a73.45,73.45,0,0,0-3.3-12.87c-.64-1.8-3.54-1-2.89.8a73.23,73.23,0,0,1,3.3,12.87c.3,1.9,3.2,1.09,2.89-.8Z" transform="translate(-778.27 -296.09)"/><path class="cls-1" d="M885.21,458.54c11.15-2.37,20,10.1,20.87,19.85.16,1.91,3.16,1.93,3,0-1-11.8-11.47-25.55-24.67-22.74-1.88.4-1.09,3.29.8,2.89Z" transform="translate(-778.27 -296.09)"/><path class="cls-1" d="M888.81,478c3.26,1.41,6.43.88,9.88,1.24s6.52,1.65,10,.92c1.89-.39,1.09-3.29-.8-2.89-3,.63-5.91-.73-8.82-1s-5.93.38-8.72-.82c-1.75-.76-3.28,1.82-1.51,2.59Z" transform="translate(-778.27 -296.09)"/><path class="cls-1" d="M885.7,460.81l3.11,6.25c.68,1.35,2.78,4.28,2.22,5.92l2.09-2.1-.42.08,2.92.77c-1.1-.87-1.76-8.08-1.32-8.77l-2.59,1.49c-.05,0,2,3.39,2.19,3.62A31.93,31.93,0,0,0,897,471.3c2.05,2,2.94,4.61,5.25,6.38,2.64,2,5.22-1.73,4.11-4.11-1.89-4-4.19-10.64-8.58-12.5-3.51-1.49-6.57,3.68-3,5.18,1.77.75,2.57,2.93,3.47,4.54,1.06,1.9,2,3.84,3,5.81l4.1-4.1c-1.25-1-2-3.24-3.06-4.45-1.3-1.44-2.87-2.56-4-4.15-1.72-2.42-4.26-7.26-8-5-3.21,1.87-1.75,7.65-1.32,10.5.53,3.4,1.39,8.12,5.84,7.31a3,3,0,0,0,2.1-2.1c.86-2.52-.29-5.29-1.36-7.57-1.45-3.11-3.05-6.15-4.57-9.21-1.72-3.46-6.9-.43-5.19,3Z" transform="translate(-778.27 -296.09)"/><path class="cls-1" d="M896.57,472a3.57,3.57,0,0,0,.88,3.45,4.21,4.21,0,0,0,1.28.87l.61.25c.66.23.4,0-.78-.71l1.8-4.41a3.69,3.69,0,0,1-2.23-.21l-2.31,5.49a7.5,7.5,0,0,1,2.43,1.05l.72-5.48a5.78,5.78,0,0,1-2.56-.41,3,3,0,1,0-1.6,5.78,11.81,11.81,0,0,0,5.75.42,3,3,0,0,0,2.15-2.5,3,3,0,0,0-1.43-3,13,13,0,0,0-3.86-1.66,3,3,0,0,0-3.54,1.74,3,3,0,0,0,1.22,3.75,10.93,10.93,0,0,0,6.85.81c2.07-.42,2.53-2.79,1.79-4.41a3.46,3.46,0,0,0-1.46-1.52,7.22,7.22,0,0,0-1-.4c-.66-.24-.09-.23.29.2l.77,1.33-.07-.22v1.6l.05-.23a3,3,0,1,0-5.79-1.59Z" transform="translate(-778.27 -296.09)"/><path class="cls-4" d="M884.17,421.4a24.77,24.77,0,0,1,.55-5.7l-5.9-.8c-.12,3.1-.37,6.18-.72,9.25h6a15.72,15.72,0,0,1,.68-3.91c1.11-3.71-4.68-5.3-5.78-1.6a22.42,22.42,0,0,0-.9,5.51,3,3,0,0,0,6,0c.35-3.07.6-6.15.72-9.25.15-3.34-5.16-4.12-5.89-.79a32.47,32.47,0,0,0-.76,7.29c.06,3.85,6.06,3.86,6,0Z" transform="translate(-778.27 -296.09)"/><path class="cls-4" d="M874.9,425.42a6.51,6.51,0,0,1,.37,3.57l5.9.8a76.25,76.25,0,0,1,.92-7.68c.65-3.74-4.88-5.41-5.78-1.6a43.87,43.87,0,0,0-1.16,9.33c0,3.35,5.11,4.13,5.9.8a58.18,58.18,0,0,1,2.39-8.19l-5.79-1.6A77.79,77.79,0,0,1,875.47,431c-1.07,3.71,4.72,5.3,5.78,1.59a75.72,75.72,0,0,0,2.19-10.1,3,3,0,0,0-5.79-1.6,61.11,61.11,0,0,0-2.39,8.2l5.89.79a35.92,35.92,0,0,1,.94-7.73l-5.78-1.6c-.53,3.08-.92,6.17-1.14,9.28-.25,3.34,5.24,4.12,5.89.79a12.8,12.8,0,0,0-.37-6.75c-1.27-3.62-7.06-2.07-5.79,1.59Z" transform="translate(-778.27 -296.09)"/><path class="cls-4" d="M877.91,433.84c5.05,4.6,6.69-3.29,9.24-5.91l-5-2.92a15.54,15.54,0,0,1-1.16,3.87c-1.14,2.73,3.19,5.18,5,2.92,2.15-2.68,5.88-5.89,6.34-9.45.41-3.19-1.9-6.59-3.48-9.18-1.47-2.42-5.79-1.57-5.59,1.51a46.79,46.79,0,0,1-.41,10.44c-.59,3.77,5.19,5.4,5.79,1.59a54.43,54.43,0,0,0,.62-12l-5.59,1.51c.85,1.41,2.83,4,2.57,5.58s-3.42,4.45-4.5,5.78l5,2.92a15.35,15.35,0,0,0,1.16-3.86c.4-2.75-2.72-5.28-5-2.92-2,2.07-2.6,4.6-4.21,6.81l1.79-1.37-.75.16,2.92.77-.51-.46c-2.85-2.6-7.1,1.63-4.24,4.24Z" transform="translate(-778.27 -296.09)"/><path class="cls-4" d="M882.38,416.81a14.12,14.12,0,0,0-2,3.79,3,3,0,0,0,2.09,3.69,3.08,3.08,0,0,0,3.69-2.09l.15-.39-.06.14c.13-.24.24-.49.38-.73a12.77,12.77,0,0,1,.91-1.39,3,3,0,0,0,.3-2.31,3.05,3.05,0,0,0-1.38-1.79,3,3,0,0,0-2.31-.3,3.49,3.49,0,0,0-1.79,1.38Z" transform="translate(-778.27 -296.09)"/><path class="cls-4" d="M885,424.84c.47-2.08.85-4.17,1.16-6.29a3,3,0,0,0-5.79-1.59c-1.57,3.79-2.31,8-3.33,12l5.78,1.59,1.86-11c.63-3.75-4.63-5.36-5.79-1.6l-3.17,10.33,5.79,1.6,2.43-11.58a3,3,0,0,0-5.48-2.31c-2.83,4.13-3.9,10.11-5.32,14.85l5.78,1.59A71.72,71.72,0,0,1,882,419.65l-5.79-1.6q-2,7.09-3.41,14.31c-.76,3.77,5,5.38,5.79,1.59q1.44-7.21,3.41-14.3c1-3.76-4.55-5.22-5.79-1.6a71.8,71.8,0,0,0-3.08,12.77c-.55,3.72,4.64,5.39,5.78,1.59,1.28-4.26,2.19-9.71,4.72-13.42l-5.49-2.31-2.43,11.58c-.79,3.77,4.65,5.32,5.79,1.6l3.17-10.33-5.79-1.6L877,429c-.63,3.73,4.8,5.4,5.78,1.59,1-4,1.76-8.21,3.34-12L880.37,417c-.3,2.11-.69,4.2-1.15,6.29-.84,3.76,4.95,5.37,5.78,1.59Z" transform="translate(-778.27 -296.09)"/><path class="cls-4" d="M879.16,429.94c.23-9.9,5.75-18.72,6.34-28.62l-5.59,1.51a44.55,44.55,0,0,1,7.59,16.95c.82,3.78,6.61,2.18,5.79-1.59a49,49,0,0,0-8.2-18.39,3,3,0,0,0-5.59,1.52c-.59,9.88-6.11,18.63-6.34,28.62-.1,3.86,5.91,3.86,6,0Z" transform="translate(-778.27 -296.09)"/><path class="cls-4" d="M880.74,411.63c1.49,2.57,1.53,5.5,2.9,8.06,1.73,3.22,6,.82,5.49-2.31l-1.1-7-5.78,1.59c1.43,3.5,2.64,7.25,4.7,10.43,1.52,2.34,5.79,1.63,5.59-1.51a27.13,27.13,0,0,0-.6-4.3l-5.48,2.31c.71,1.3,1.35,2.62,1.94,4l.47-3.64-1.21,1.38c-2.54,2.89,1.69,7.15,4.24,4.24l1.21-1.38a3.15,3.15,0,0,0,.47-3.63c-.59-1.36-1.23-2.68-1.94-4-1.68-3.08-6.2-.92-5.48,2.31a17.68,17.68,0,0,1,.38,2.71l5.59-1.51c-1.79-2.77-2.85-6-4.1-9a3,3,0,0,0-5.78,1.59l1.09,7,5.48-2.31c-.63-1.19-.63-2.84-1.07-4.14a22.17,22.17,0,0,0-1.83-3.92c-1.94-3.34-7.12-.32-5.18,3Z" transform="translate(-778.27 -296.09)"/><path class="cls-4" d="M876.77,438a51.22,51.22,0,0,0,1.79-5.28c1.05-3.73-4.61-5.26-5.78-1.59-.93,2.92-1.75,5.86-2.45,8.84l5.89.8c.1-3.79,1.8-7.88,2.95-11.46s-4.46-5.16-5.79-1.59L871,434.07l5.9.8c.09-2.26,1.27-4.82,2-6.95,1.21-3.74-4.42-5.13-5.78-1.6a76.18,76.18,0,0,0-3.43,11.52c-.8,3.77,5,5.38,5.79,1.6a76.61,76.61,0,0,1,3.42-11.52l-5.78-1.6c-.9,2.77-2.06,5.62-2.18,8.55-.15,3.58,4.77,3.8,5.89.8l2.36-6.34-5.79-1.59c-1.33,4.15-3,8.65-3.16,13.05-.09,3.35,5.11,4.11,5.89.79.71-3,1.52-5.92,2.45-8.84l-5.78-1.59a52.11,52.11,0,0,1-1.8,5.28c-1.43,3.58,4.37,5.14,5.79,1.59Z" transform="translate(-778.27 -296.09)"/><path class="cls-4" d="M872.24,433.09a55.33,55.33,0,0,0-2,10.13c-.28,2.63,3.44,3.9,5.12,2.12,1.53-1.62,2.11-4,2.9-6l2.7-6.91-5.79-1.59-2,5.4c-1.37,3.62,4.43,5.18,5.78,1.6L881,432.4c1.37-3.63-4.4-5.15-5.79-1.59l-2.06,5.28c-.5,1.3-1,4-2,5l5.12,2.12a46.66,46.66,0,0,1,1.77-8.53c1.11-3.71-4.68-5.29-5.79-1.6Z" transform="translate(-778.27 -296.09)"/><path class="cls-4" d="M877.48,442.21q3.72-5.73,7.18-11.61c2-3.33-3.22-6.35-5.18-3q-3.47,5.88-7.18,11.6c-2.11,3.25,3.09,6.26,5.18,3Z" transform="translate(-778.27 -296.09)"/><path class="cls-4" d="M878,430.82a72.78,72.78,0,0,1-3.33,6.6c-1.91,3.36,3.27,6.39,5.18,3q1.83-3.22,3.33-6.6a3.1,3.1,0,0,0-1.07-4.11c-1.28-.74-3.45-.41-4.11,1.08Z" transform="translate(-778.27 -296.09)"/><path class="cls-4" d="M870.53,439.62a17.68,17.68,0,0,1-1.35,3.79l1.4.38A45.73,45.73,0,0,1,873,434.5c.31-.92-1.13-1.31-1.45-.4q-2.16,6.19-3.92,12.54l1.45.39a106.39,106.39,0,0,1,4.12-13.14l-1.44-.4-4.33,13.82,1.47.2c-.24-2.39.78-5,1.42-7.27s1.29-4.27,2-6.38c.32-.92-1.11-1.29-1.45-.4a133.59,133.59,0,0,0-4.71,15.16c-.23.94,1.22,1.34,1.45.4a129.67,129.67,0,0,1,4.71-15.16l-1.45-.4c-1.42,4.11-3.92,9.65-3.49,14.05a.75.75,0,0,0,1.47.2l4.33-13.82c.3-.93-1.1-1.28-1.44-.4a107.77,107.77,0,0,0-4.13,13.15.75.75,0,0,0,1.45.39q1.75-6.33,3.92-12.53l-1.45-.4a48.4,48.4,0,0,0-2.49,9.69c-.09.73,1.08,1,1.4.37A20.9,20.9,0,0,0,872,440c.23-.94-1.22-1.34-1.45-.4Z" transform="translate(-778.27 -296.09)"/><path class="cls-4" d="M869.51,441.45l-3.8,10,1.45.4a67.57,67.57,0,0,1,2.63-8.09l-1.44-.39L865,452.68l1.45.4,1.36-5.35a.75.75,0,0,0-1.45-.4l-2.68,7.74,1.45.4a16.34,16.34,0,0,1,1.11-3.82l-1.37-.58c-.71,2-1.28,4.63-2.77,6.24l1.26.73q3.4-8.61,6.17-17.45c.29-.92-1.16-1.31-1.45-.39q-2.76,8.83-6.17,17.44c-.28.71.77,1.26,1.25.73,1.72-1.85,2.34-4.56,3.15-6.9.28-.79-1-1.36-1.37-.58a19.18,19.18,0,0,0-1.26,4.18.75.75,0,0,0,1.45.4l2.68-7.74-1.45-.4L865,452.68a.75.75,0,0,0,1.45.4l3.38-9.32c.34-.91-1.09-1.28-1.44-.39a65.17,65.17,0,0,0-2.64,8.08.75.75,0,0,0,1.45.4l3.8-10c.34-.91-1.11-1.3-1.45-.4Z" transform="translate(-778.27 -296.09)"/><path class="cls-4" d="M869.13,446l-2.2,5.63,1.45.4a69.7,69.7,0,0,1,4-11.43L871,440l-4.22,14.89,1.44.4a69.85,69.85,0,0,1,3.24-9.63l-1.37-.57c-.57,2.82-1.23,5.61-2,8.39a.75.75,0,0,0,1.44.4c.76-2.78,1.42-5.57,2-8.39.16-.78-1-1.41-1.37-.58a70.22,70.22,0,0,0-3.39,10,.75.75,0,0,0,1.44.4l4.23-14.89c.22-.8-1-1.36-1.37-.58a72,72,0,0,0-4.15,11.79c-.27.95,1.1,1.28,1.45.4l2.19-5.63c.35-.9-1.1-1.29-1.44-.4Z" transform="translate(-778.27 -296.09)"/><path class="cls-4" d="M871.17,444.45l-1.69,6.2a.75.75,0,0,0,1.44.4,54.48,54.48,0,0,1,2.78-8.16l-1.38-.58-1.77,8.29a.75.75,0,0,0,1.45.4l2.77-8.51-1.45-.4-1.88,7.24a.75.75,0,0,0,1.45.4q1.25-4.28,2.87-8.43l-1.45-.4c-1,2.88-1.84,5.79-2.54,8.75-.18.8,1,1.37,1.38.58a46.35,46.35,0,0,0,2.62-6.31c.3-.92-1.14-1.31-1.45-.4-.63,1.87-1.17,3.76-1.64,5.67a.75.75,0,0,0,1.45.4c.82-2.3,1.71-4.59,2.65-6.85l-1.45-.4a39.09,39.09,0,0,0-1.31,4.1c-.21.79,1,1.38,1.37.58a43,43,0,0,0,2.19-6,.75.75,0,0,0-1.45-.4,39.52,39.52,0,0,1-2,5.67l1.37.58a39.14,39.14,0,0,1,1.32-4.1c.35-.91-1.08-1.27-1.45-.4q-1.41,3.41-2.65,6.85l1.45.4q.69-2.86,1.64-5.67l-1.45-.4a41.81,41.81,0,0,1-2.47,6l1.37.57a89.2,89.2,0,0,1,2.54-8.75c.31-.92-1.11-1.28-1.45-.4q-1.62,4.16-2.87,8.43l1.45.4,1.88-7.24a.75.75,0,0,0-1.45-.4l-2.77,8.51,1.45.4,1.77-8.29c.17-.78-1-1.39-1.37-.58a57.09,57.09,0,0,0-2.92,8.52l1.44.4,1.7-6.2a.75.75,0,0,0-1.45-.4Z" transform="translate(-778.27 -296.09)"/><path class="cls-4" d="M875.75,442a3.67,3.67,0,0,0-.29.6c-.29.79,1,1.35,1.37.58q1-2,2-4l-1.29-.75a36.3,36.3,0,0,0-2.44,6.47.76.76,0,0,0,1.26.73,10.14,10.14,0,0,0,1.7-3.07c.42-1,1.17-2.16.87-3.24a.75.75,0,0,0-1.44.4c.17.65-.68,2-.94,2.59a7.69,7.69,0,0,1-1.25,2.26l1.25.73a34.39,34.39,0,0,1,2.28-6.12c.42-.86-.83-1.61-1.29-.75q-1.07,2-2,4l1.37.58.13-.24c.53-.81-.77-1.56-1.29-.76Z" transform="translate(-778.27 -296.09)"/><path class="cls-4" d="M872.28,447.57a12.9,12.9,0,0,0-.86,5.18.75.75,0,0,0,1.47.2c.38-1.33.81-2.64,1.28-3.93l-1.47-.2c.13,1.63.31,3.25.56,4.88l1.45-.4a10.53,10.53,0,0,0-1.35-3.07.75.75,0,0,0-1.29.76c.53,1.12,1.54,2.6,1.72,3.85l.35-.84c-1.71,1.23-3.69.75-5.59,1a24.36,24.36,0,0,0-5,1.77l.85,1.1a70.92,70.92,0,0,0,4.57-7.51c.45-.85-.85-1.61-1.3-.75a73.47,73.47,0,0,1-4.56,7.5.75.75,0,0,0,.84,1.1c2.27-.85,4.1-1.65,6.51-1.65a8.2,8.2,0,0,0,4.47-1.25.8.8,0,0,0,.35-.85c-.2-1.38-1.29-3-1.88-4.21l-1.29.76a9.52,9.52,0,0,1,1.19,2.71c.25.95,1.59.53,1.45-.4-.23-1.49-.4-3-.51-4.48a.75.75,0,0,0-1.47-.2c-.48,1.3-.9,2.6-1.29,3.93l1.48.2a11.88,11.88,0,0,1,.81-4.79c.34-.9-1.11-1.29-1.45-.39Z" transform="translate(-778.27 -296.09)"/><path class="cls-4" d="M865.6,454.53a6.47,6.47,0,0,0-.26,1.38.75.75,0,0,0,.95.72c1-.32,1.24-1.57,1.62-2.45l-1.37-.58a9.16,9.16,0,0,1-.61,2.16l1.38.58A9.22,9.22,0,0,1,868,454c.07-.16.48-.79.32-.87s.16,1.06.18,1.12c.13.58,1.11.79,1.37.18l1.19-2.81-1.4-.38a11.63,11.63,0,0,1-.32,3.22l1.45.4.69-4.16a.75.75,0,0,0-1.45-.4c-.45,1.18-.84,3.11-1.68,4.07l1.28.54a5.39,5.39,0,0,1,.55-3.37l-1.37-.58a24.39,24.39,0,0,0-.45,3.91.76.76,0,0,0,1.4.37l1.86-4-1.37-.18a10.38,10.38,0,0,1-.14,3.47.75.75,0,0,0,1.45.4l.82-2.17-1.45-.39c-.13.72-.23,1.44-.3,2.17a.76.76,0,0,0,1.4.38c.22-.46.69-.76,0-.88s-.34.23-.21.72a.75.75,0,0,0,1.47-.19l.05-.46-1.25.33.31.4a.76.76,0,0,0,1.26-.33,3.59,3.59,0,0,0,.05-.8l-.37.65c.74-.33.47-.87.51-1.5l-1,.72.24.08a.76.76,0,0,0,1-.73l0-.38-1.4.38a5.12,5.12,0,0,1,.58,1.2c.33.9,1.78.51,1.44-.4a9.22,9.22,0,0,0-.73-1.56c-.35-.6-1.47-.39-1.39.38l0,.38.95-.72-.24-.08a.76.76,0,0,0-.95.73c0,.24.08.53,0,.76l.37-.64-.19.08a.74.74,0,0,0-.37.65v.4l1.26-.33-.32-.4a.75.75,0,0,0-1.25.33,3.12,3.12,0,0,0-.11.86l1.48-.2c-.16-.62-.28-1.54-1.07-1.65s-1.17.85-1.45,1.44l1.39.38c.06-.6.14-1.18.25-1.78a.75.75,0,0,0-1.45-.39l-.82,2.16,1.45.4a12.71,12.71,0,0,0,.13-4.26.75.75,0,0,0-1.37-.18l-1.86,4,1.4.38a21.68,21.68,0,0,1,.4-3.51c.16-.79-1-1.38-1.37-.58a6.66,6.66,0,0,0-.76,4.13c.08.57.8,1.07,1.28.53,1.09-1.25,1.49-3.23,2.07-4.74l-1.45-.4-.69,4.16c-.15.94,1.25,1.36,1.45.4a13.42,13.42,0,0,0,.37-3.62c0-.66-1.08-1.13-1.39-.38l-1.2,2.81,1.37.18c-.21-.93-.4-3.21-2-2.43-1.33.68-1.9,3.24-2.13,4.55-.13.76,1,1.42,1.37.57A10.38,10.38,0,0,0,868,454c.13-.76-1-1.43-1.37-.58a16.8,16.8,0,0,1-.72,1.77l1,.72a3.63,3.63,0,0,1,.2-1,.75.75,0,0,0-1.44-.4Z" transform="translate(-778.27 -296.09)"/><path class="cls-4" d="M832.85,411.52a14.28,14.28,0,0,1,.32,4.27h3l0-8.22c0-1.63-2.66-2.11-3-.4q-.9,5.32-1.86,10.64l3,.4a28.59,28.59,0,0,1,.48-7.77c.37-1.87-2.44-2.69-2.9-.79l-1.13,4.73,2.94.4.14-5.74a1.51,1.51,0,0,0-3-.4l-1.47,4.78,2.95.4c.1-4.16.37-8.1,2.92-11.49a15.19,15.19,0,0,0,3.05-5.34h-2.89c1.1,6.13,1.85,12.47,3.58,18.47s4.73,11.38,6.25,17.39c.47,1.87,3.37,1.08,2.89-.8-1.51-6-4.5-11.46-6.24-17.39s-2.49-12.34-3.59-18.47c-.27-1.53-2.5-1.33-2.89,0-1,3.25-3.73,4.75-4.76,7.83a34.53,34.53,0,0,0-1.32,9.8,1.51,1.51,0,0,0,3,.4l1.46-4.78-2.94-.4-.14,5.74a1.51,1.51,0,0,0,2.95.4l1.14-4.74-2.9-.79a32.75,32.75,0,0,0-.58,8.56c.1,1.58,2.63,2.16,2.95.4q.94-5.33,1.85-10.64l-2.94-.4,0,8.22a1.5,1.5,0,0,0,3,0,24.47,24.47,0,0,0-.42-5.06c-.35-1.9-3.24-1.1-2.9.79Z" transform="translate(-778.27 -296.09)"/><path class="cls-4" d="M833.45,403.6a79.09,79.09,0,0,1-.05,18.58c-.24,1.91,2.76,1.89,3,0l2.28-18.25c.18-1.45-1.69-1.77-2.56-1.06a5.39,5.39,0,0,0-1.52,1.7l2.8.76.28-5c.1-1.79-2.41-1.91-2.95-.4A46.72,46.72,0,0,0,832,417.79a1.5,1.5,0,0,0,2.94.4,44.76,44.76,0,0,0,1.56-10.55c.06-2-2.82-1.88-3,0l-1.23,12.71h3l.61-9.47c.11-1.66-2.69-2.08-3-.4a84.88,84.88,0,0,1-1.79,8.64l2.95.4c0-3.71.12-7.39.38-11.09.13-1.67-2.65-2.08-2.94-.4a70,70,0,0,0-.89,7.34c-.12,1.68,2.59,2.06,2.95.4a8.53,8.53,0,0,0,.27-3c-.08-1.6-2.62-2.14-3-.4l-1.38,7.34,2.94.39a75.36,75.36,0,0,1,.46-8.88c.18-1.67-2.62-2.05-2.95-.39l-1.51,7.64,2.94.4.32-2.79L829,414.9c-.76,3.48-1.53,7.22-.23,10.66,1.56,4.14,5.68,4.86,7.91,8.34,1,1.62,3.64.12,2.59-1.52a16,16,0,0,0-4-3.83c-4.67-3.75-4.55-7.48-3.38-12.85.34-1.56-2-2.79-2.75-1.15a7.52,7.52,0,0,0-.73,4.3c.19,1.53,2.59,2.21,3,.4l1.51-7.65-2.94-.4a75.36,75.36,0,0,0-.46,8.88c0,1.64,2.63,2.11,3,.4l1.38-7.33-2.94-.4-.17,2.23,3,.39a62.39,62.39,0,0,1,.78-6.54l-3-.4c-.26,3.7-.39,7.38-.38,11.09a1.51,1.51,0,0,0,3,.4c.74-2.86,1.33-5.72,1.79-8.64l-2.95-.4-.61,9.47c-.13,1.94,2.81,1.89,3,0l1.23-12.71h-3a41.71,41.71,0,0,1-1.45,9.75l3,.4a44.78,44.78,0,0,1,2.66-17.05l-2.94-.39-.28,5c-.09,1.58,2,1.9,2.79.75l1-1.09-2.56-1.06-2.28,18.25h3a79.09,79.09,0,0,0,.05-18.58c-.22-1.89-3.22-1.91-3,0Z" transform="translate(-778.27 -296.09)"/><path class="cls-4" d="M833.38,430.29A37.78,37.78,0,0,1,839.2,438l2.35-1.82-8.2-9.82c-1.24-1.48-3.35.65-2.12,2.12l8.2,9.82c1.12,1.34,3.18-.37,2.36-1.82a40.82,40.82,0,0,0-6.29-8.32c-1.36-1.39-3.48.74-2.12,2.12Z" transform="translate(-778.27 -296.09)"/><path class="cls-4" d="M839,435.71c1,3.52,2.86,6.45,4.51,9.68,2.53,4.95,1.84,9,2,14.32l2.8-.76a9.43,9.43,0,0,1-.4-7.24c.6-1.84-2.3-2.63-2.9-.8a12.15,12.15,0,0,0,.7,9.56c.65,1.36,2.84.67,2.8-.76-.13-4.51.73-8.54-1-12.85-1.64-4.13-4.42-7.62-5.63-11.94a1.5,1.5,0,0,0-2.89.79Z" transform="translate(-778.27 -296.09)"/><path class="cls-4" d="M833,425.48l1.77,2,4.71-3.64a12.29,12.29,0,0,0-5.76-3.53c-3.12-.94-4.66,2.85-2.92,5,3,3.78,6.67,7,9.82,10.64,3.85,4.48,5.33,9.3,6.41,15,.72,3.83,6.38,2.16,5.78-1.59-1-6.46-2.26-12.74-5.29-18.6A161,161,0,0,1,839.32,411c-1.29-3.6-7.09-2.05-5.79,1.6,2.25,6.25,4.21,12.7,7.32,18.59,3.39,6.44,5,12.64,6.13,19.79l5.78-1.59c-1.09-5.79-2.63-10.9-6.27-15.61-3.5-4.52-7.92-8.22-11.5-12.68l-2.92,5a4.92,4.92,0,0,1,3.12,2c2.3,2.46,6.6-.76,4.71-3.63A16,16,0,0,0,836,420.3c-3.06-2.35-6.05,2.86-3,5.18Z" transform="translate(-778.27 -296.09)"/><path class="cls-4" d="M837.18,421.13q4.26,9.75,8,19.72,1.67,4.5,3.21,9c.53,1.55.82,2.13.29,3.46s-2.45,2.58-3.38,3.46c-2.2,2.08.08,5.8,2.92,5l6.63-1.85c3.72-1,2.14-6.82-1.59-5.78L846.59,456l2.92,5c1.94-1.83,5.08-4.3,5.76-7.05.82-3.34-1.93-8.07-3-11.13-3-8.37-6.33-16.61-9.89-24.75-1.54-3.53-6.71-.48-5.18,3Z" transform="translate(-778.27 -296.09)"/><path class="cls-4" d="M856.83,453.11l-.34-.51a3,3,0,1,0-5.18,3l.34.51a3,3,0,0,0,5.18-3Z" transform="translate(-778.27 -296.09)"/><path class="cls-2" d="M855.6,440.63l-.35,3.18,5.89-.8a24.17,24.17,0,0,1-.2-3.5c0-3.32-5.11-4.16-5.89-.8a19.55,19.55,0,0,0-.55,5.05h6a26.56,26.56,0,0,0-.45-3.06c-.62-3-5-2.73-5.78,0l-.24.82h5.79l.07-1.41a3,3,0,0,0-4.41-3.39c-2.07,1.06-1.91,3.14-1.65,5.13.47,3.71,6.21,4,6,0l-.21-3.93c-.21-3.84-5.85-3.87-6,0l-.18,4.42,5.9-.8v-.88h-6a31.29,31.29,0,0,0,3.5,16c1.14,2.23,5,1.79,5.49-.72.23-1.18,1.56-2.36,2.12-3.45a20.38,20.38,0,0,0,1.61-4.27,29,29,0,0,0,.72-9c-.23-3.84-6.23-3.87-6,0a22.53,22.53,0,0,1-.8,8.45c-.8,2.43-3,4.23-3.44,6.68l5.48-.72a25.21,25.21,0,0,1-2.68-13c.2-3.87-5.77-3.84-6,0a8.92,8.92,0,0,0,.22,2.47c.68,3.44,5.76,2.46,5.89-.79l.18-4.42h-6l.21,3.93h6a14.54,14.54,0,0,0-.24-1.59l-1.38,1.79.3-.15-4.41-3.39a12.76,12.76,0,0,0-.07,4.61c.47,3.06,5.05,2.64,5.79,0l.23-.83h-5.78l.23,1.47c.35,3.78,6.09,3.93,6,0a13,13,0,0,1,.33-3.46l-5.89-.79a34.72,34.72,0,0,0,.42,5.09c.52,3.62,5.55,2.26,5.89-.79l.35-3.18c.42-3.83-5.58-3.8-6,0Z" transform="translate(-778.27 -296.09)"/><path class="cls-2" d="M857.21,457.18l0,.59a1.15,1.15,0,0,0,1.12,1.13l2,0a1.13,1.13,0,0,0,0-2.25,7.26,7.26,0,0,0-3,.69,1.13,1.13,0,0,0-.41,1.54,1.15,1.15,0,0,0,1.54.4,4.66,4.66,0,0,1,1.91-.38v-2.25l-2,0,1.13,1.12,0-.59c0-1.44-2.29-1.45-2.25,0Z" transform="translate(-778.27 -296.09)"/><path class="cls-5" d="M839.24,400.16a92,92,0,0,0,3.85,15.95,1.14,1.14,0,0,0,1.38.79c3-1.18,5.92-2.43,8.82-3.77,1.29-.6,4.08-1.48,3.41-3.5-.55-1.7-4.43-2.55-5.82-3.22a100.26,100.26,0,0,1-9.4-5.22c-1.23-.76-2.36,1.18-1.13,1.95a98.09,98.09,0,0,0,12,6.41c.57.25,2,1.18,2,.64,0,.28-2.94,1.38-3.16,1.48-2.38,1.08-4.79,2.09-7.23,3.06l1.39.78a92,92,0,0,1-3.85-15.95c-.21-1.42-2.38-.82-2.17.6Z" transform="translate(-778.27 -296.09)"/><path class="cls-5" d="M841.73,405.12q1,4.19,2.24,8.32a1.12,1.12,0,0,0,2.16-.59l-1.32-8.46c-.2-1.27-2.23-.95-2.21.3a27.33,27.33,0,0,0,1.67,9c.4,1.1,2.33,1.06,2.21-.3l-.61-6.56-1.69,1c.6.3,1.3,3.49,1.54,4.12.4,1.11,2.31,1.06,2.21-.3l-.38-4.72-2.21.3,1.71,6.08,2.17-.59a22.9,22.9,0,0,1-.84-4.79l-2.21.3a41.52,41.52,0,0,1,1.21,5c.21,1.23,2.34,1,2.21-.3a29,29,0,0,1-.13-4.47l-2.09.57,2.27,3.14c.6.83,2.14.64,2.09-.57a13.17,13.17,0,0,0-.48-3.12l-2,.86,1.36,2.67a1.14,1.14,0,0,0,2.1-.57,7.6,7.6,0,0,0-.38-2.45l-1.88,1.09,1.21.95a1.14,1.14,0,0,0,1.92-.79,3.64,3.64,0,0,0-.17-1.39l-1.88,1.1a2.71,2.71,0,0,0,3.11.73,1.15,1.15,0,0,0,.27-2.06l-1.07-.72c-1.21-.81-2.33,1.13-1.14,1.94l1.07.72.27-2.05-.92-.15a1.13,1.13,0,0,0-1.88,1.09l.09.79,1.92-.8-1.21-1c-.8-.62-2.27-.09-1.88,1.1a3.89,3.89,0,0,1,.3,1.85l2.1-.57-1.37-2.66a1.13,1.13,0,0,0-2.06.86,10.35,10.35,0,0,1,.4,2.53l2.1-.57-2.27-3.14a1.14,1.14,0,0,0-2.1.57,29,29,0,0,0,.13,4.47l2.21-.3a41.52,41.52,0,0,0-1.21-5c-.36-1.16-2.3-1-2.21.3a25.14,25.14,0,0,0,.92,5.38,1.13,1.13,0,0,0,2.17-.59l-1.71-6.09c-.33-1.18-2.31-1-2.21.3l.38,4.72,2.2-.3c-.55-1.5-1-4.69-2.57-5.46-.69-.34-1.78.05-1.69,1l.61,6.56,2.21-.3a25.3,25.3,0,0,1-1.59-8.43l-2.21.3,1.33,8.45,2.16-.59c-.79-2.77-1.54-5.54-2.23-8.33a1.13,1.13,0,0,0-2.17.6Z" transform="translate(-778.27 -296.09)"/><path class="cls-5" d="M845.59,422.37l2.3,5.86,2.06-.87c-.94-1.76-1.81-3.55-2.63-5.37-.55-1.2-2.34-.32-2.06.87a18.68,18.68,0,0,0,1.87,4.85,1.13,1.13,0,0,0,2.06-.87,23.71,23.71,0,0,0-1.83-3.8c-.33-.63-1.4-4.65-2.24-4.65l-1-.55a19.69,19.69,0,0,1,1.71,3.62c.47,1.06,2.1.48,2.09-.57q0-2.24-.12-4.47c-.07-1.44-2.32-1.45-2.25,0s.12,3,.12,4.47l2.1-.57c-.4-.89-2.7-6.74-4.29-3.23-.58,1.28.34,3.41.78,4.59.74,2,2.08,3.73,2.73,5.76l2.06-.87a16.35,16.35,0,0,1-1.65-4.31l-2.06.87c.82,1.82,1.7,3.6,2.63,5.37.59,1.1,2.53.33,2.06-.87l-2.3-5.86c-.52-1.34-2.69-.75-2.17.6Z" transform="translate(-778.27 -296.09)"/><path class="cls-5" d="M847.46,416.44a16.35,16.35,0,0,1,.27-4.83h-2.17l1.05,7.61c.17,1.24,2.37,1,2.21-.3l-.77-6.19-2.21.3a73,73,0,0,1,1.36,7.77l2.21-.3-.41-1.65a1.13,1.13,0,0,0-2.17.6l.41,1.65c.29,1.2,2.36,1,2.21-.3a76.22,76.22,0,0,0-1.44-8.37c-.28-1.21-2.37-1-2.21.3l.77,6.19,2.21-.3-1-7.6c-.16-1.11-2-1-2.17,0a18.26,18.26,0,0,0-.35,5.42c.12,1.43,2.37,1.45,2.25,0Z" transform="translate(-778.27 -296.09)"/><path class="cls-5" d="M846.37,414.38a78.18,78.18,0,0,1,1.79,7.85l2.17-.6-1.52-7.17-2.17.59a13.45,13.45,0,0,1,.51,3.68l2.21-.3-.17-.61a1.13,1.13,0,0,0-2.17.6l.17.6a1.13,1.13,0,0,0,2.21-.29,15.39,15.39,0,0,0-.59-4.27,1.12,1.12,0,0,0-2.17.59l1.52,7.18c.3,1.43,2.42.81,2.17-.6a78.18,78.18,0,0,0-1.79-7.85,1.13,1.13,0,0,0-2.17.6Z" transform="translate(-778.27 -296.09)"/><path class="cls-5" d="M846.87,417.27a1.5,1.5,0,0,0,1.34,1.55c.94.09,1.69-.72,2.35-1.28a15.31,15.31,0,0,0,3.79-4.31c.7-1.27-1.24-2.41-1.94-1.14a10.9,10.9,0,0,1-1.9,2.48q-.5.48-1,.93c-.21.19-.44.38-.66.56-.41.35-.43.17,0,.62l.33.79v-.2a1.13,1.13,0,0,0-2.25,0Z" transform="translate(-778.27 -296.09)"/><path class="cls-5" d="M847.57,417.22c1.85,4.78,5,7.3,3.48,13-.84,3.07-1.13,5.52-.06,8.6l2-.87c-2.11-4.95-2.06-10.46-4.67-15.24-.69-1.27-2.64-.13-1.94,1.14,2.58,4.72,2.57,10.31,4.67,15.24.5,1.16,2.47.33,2.06-.87-1.52-4.38,1-7.53.81-11.77-.14-3.94-2.88-6.3-4.23-9.8-.52-1.33-2.7-.75-2.17.6Z" transform="translate(-778.27 -296.09)"/><path class="cls-5" d="M846.65,423.15l2,6.31c.36,1.15,2.31,1,2.21-.3l-.56-6.89-2.21.3a35.5,35.5,0,0,1,2,7.86l1.92-.8c-1-1.08-1.05-4.63-1.32-6a1.13,1.13,0,0,0-2.21.3l.29,6.7,2.09-.57a13.34,13.34,0,0,1-1.17-3.91l-2.17.6,2,7.51,1.88-1.09c-3.81-4.84-2-11.78-5.1-17-.63-1.06-2.49-.37-2.06.87q1.62,4.66,3.37,9.29c.51,1.34,2.68.76,2.17-.6q-1.76-4.62-3.37-9.29l-2.05.87c3.26,5.45,1.38,12.3,5.45,17.48.73.92,2.14-.09,1.88-1.1l-2-7.51c-.38-1.43-2.39-.8-2.17.6a16,16,0,0,0,1.4,4.44,1.13,1.13,0,0,0,2.1-.56l-.29-6.7-2.21.3c.43,2.18.34,5.33,1.9,7,.61.67,2.05.19,1.92-.79a38.41,38.41,0,0,0-2-8.46c-.41-1.1-2.32-1.06-2.21.3l.56,6.89,2.21-.3-2-6.31c-.43-1.37-2.61-.79-2.17.6Z" transform="translate(-778.27 -296.09)"/><path class="cls-5" d="M848.51,418.59a7.64,7.64,0,0,1,.9-1.6c.22-.3.74-1.11,1.12-1.2l-.87-.11.15.07-.52-.68.05.16v-.6c-.12.67-.34,1.34-.52,2a1.13,1.13,0,0,0,2.06.87l1.14-2a1.12,1.12,0,0,0-1.94-1.13l-1.15,2,2.06.87c.21-.78.72-1.87.49-2.68a1.38,1.38,0,0,0-2.16-.66,8.75,8.75,0,0,0-3,4.1,1.13,1.13,0,1,0,2.17.6Z" transform="translate(-778.27 -296.09)"/><path class="cls-5" d="M861.87,409.78l7.89-2.43-.87-2.06-.7.46c-1.21.78-.09,2.73,1.13,1.94l.7-.45c1-.67.4-2.45-.86-2.06l-7.89,2.44c-1.38.42-.79,2.59.6,2.16Z" transform="translate(-778.27 -296.09)"/><path class="cls-5" d="M862.32,409.75a10.81,10.81,0,0,0,1.75,4.4l1.76-1.36a12.29,12.29,0,0,1-2.48-3.58l-1.94,1.14c1.39,2.37,2.9,4.68,4.5,6.93l1.77-1.37a23,23,0,0,1-3.61-5.2l-1.77,1.36q3.3,3.39,6.32,7c.93,1.11,2.51-.49,1.59-1.6q-3-3.63-6.31-7c-.94-1-2.29.26-1.77,1.36a25.27,25.27,0,0,0,4,5.66c.82,1,2.51-.32,1.77-1.36q-2.42-3.36-4.51-6.93c-.75-1.27-2.53-.16-1.94,1.14a14,14,0,0,0,2.83,4c.87.9,2.5-.28,1.77-1.36a9.22,9.22,0,0,1-1.52-3.87c-.23-1.43-2.4-.82-2.17.6Z" transform="translate(-778.27 -296.09)"/><path class="cls-5" d="M867.83,424.73a2.88,2.88,0,0,1,1.53-2.58l-1.59-1.59c-1.47,1.69-2.68,2.21-2.61,4.62a101.55,101.55,0,0,0,1.34,10.23,1.13,1.13,0,0,0,2.09.57c2-2.85,2.79-6,3.42-9.42s2-7,2.23-10.49c.09-1.44-2.16-1.44-2.25,0-.2,3.29-1.55,6.63-2.15,9.89s-1.26,6.19-3.19,8.88l2.1.57c-.31-2.32-.63-4.64-.93-7-.36-2.82-.35-4.13,1.54-6.31a1.13,1.13,0,0,0-1.59-1.59,5.19,5.19,0,0,0-2.11,3.57c-.22,1.42,2,2,2.17.6Z" transform="translate(-778.27 -296.09)"/><path class="cls-5" d="M870.3,423h-.16l1,.55c.08.16.18-.64.2-.77.1-.48.2-.95.32-1.43.21-.87.46-1.74.75-2.6l-2.17-.6a16.59,16.59,0,0,1-1.05,3.52l2.05.87.65-3.69a1.13,1.13,0,0,0-2.17-.6,15.17,15.17,0,0,0-.94,3.3,1.13,1.13,0,0,0,2.06.87,10.9,10.9,0,0,0,1.2-2.94c.34-1.41-1.83-2-2.17-.6a8.64,8.64,0,0,1-1,2.4l2,.87a15.17,15.17,0,0,1,.94-3.3l-2.17-.6-.65,3.69c-.2,1.15,1.51,2.12,2.06.87a18.08,18.08,0,0,0,1.28-4.06,1.13,1.13,0,0,0-2.17-.6,33.92,33.92,0,0,0-1.18,4.64c-.19,1.11-.17,2.39,1.26,2.46s1.44-2.17,0-2.25Z" transform="translate(-778.27 -296.09)"/><path class="cls-5" d="M877.4,401.58c-.83,6.75-3.61,13.22-5.62,19.69-1.9,6.12-3.67,12.27-5.35,18.45a1.13,1.13,0,0,0,2.17.6c1.85-6.8,3.81-13.56,5.93-20.28,1.92-6.1,4.33-12.09,5.12-18.46.18-1.44-2.07-1.42-2.25,0Z" transform="translate(-778.27 -296.09)"/><path class="cls-5" d="M869.55,432.44a52.27,52.27,0,0,1,1.67-10l-2.17-.6a70,70,0,0,1-1.74,8.33l2.21.29a98.62,98.62,0,0,1,2-10.91l-2.17-.6c-.39,2.21-.88,4.38-1.48,6.54l2.17.59q.48-3,1.2-5.93a1.13,1.13,0,0,0-2.17-.6c-.3,1-.63,1.94-1,2.91l2.21.3,0-1.21c.21-1.17-1.42-2.08-2-.87l-1.36,2.59,2.09.56a24.14,24.14,0,0,1,.65-4.62c.28-1.18-1.51-2.08-2.06-.87l-.5,1.12,2.05.87c.53-1.72,1.12-3.4,1.77-5.06l-2.21-.3-.24,2.25c-.14,1.25,2,1.55,2.21.3a8.61,8.61,0,0,1,.87-3.05l-2.09-.57c0,1.48-.14,2.89-.32,4.36-.15,1.29,1.87,1.48,2.21.3s.69-2.55,1-3.85-1.87-2-2.17-.6-.6,2.57-1,3.85l2.21.3c.18-1.47.28-2.88.32-4.36,0-1.05-1.64-1.61-2.1-.56a14.16,14.16,0,0,0-1.1,3.58l2.21.3.24-2.25c.15-1.37-1.78-1.38-2.21-.3-.65,1.67-1.24,3.34-1.77,5.06-.36,1.19,1.53,2,2.06.86l.5-1.11-2-.87a27.12,27.12,0,0,0-.73,5.22,1.14,1.14,0,0,0,2.1.57l1.36-2.58-2.06-.87a6.48,6.48,0,0,0-.13,1.81,1.13,1.13,0,0,0,2.21.3c.39-1,.72-1.91,1-2.91l-2.17-.6c-.48,2-.88,3.94-1.2,5.94-.23,1.39,1.77,2,2.17.59.6-2.16,1.09-4.32,1.48-6.53.25-1.4-1.82-2-2.17-.6a104.7,104.7,0,0,0-2.06,11.51c-.16,1.28,1.89,1.5,2.21.3a69.44,69.44,0,0,0,1.74-8.32c.21-1.39-1.78-2-2.17-.6a55.5,55.5,0,0,0-1.75,10.63c-.09,1.44,2.16,1.44,2.25,0Z" transform="translate(-778.27 -296.09)"/><path class="cls-5" d="M869.86,414.07a4.06,4.06,0,0,1-1.13,2.28l1.88,1.09q.6-2.67,1.33-5.3a1.13,1.13,0,0,0-2.06-.87,23.25,23.25,0,0,0-1.76,3.66l2.21.3a8.15,8.15,0,0,1,0-2.26c.18-1.16-1.41-2.09-2.05-.86-.53,1-1.08,2-1.67,3l2.06.27c-.54-1.7.29-3.6,0-5.38-.16-1-1.58-1-2-.27a24.61,24.61,0,0,0-1.71,3.1l2.09.56a11,11,0,0,1,.1-3,1.13,1.13,0,0,0-2.06-.87,4.49,4.49,0,0,0-.79,2.26c-.13,1.28,1.91,1.51,2.21.3l.48-1.91-2.06.27c1.61,2.09,5,2.71,6.27-.13.58-1.32-1.36-2.46-1.94-1.14a1.31,1.31,0,0,1-2.38.14,1.14,1.14,0,0,0-2.06.27l-.48,1.9,2.21.3a1.85,1.85,0,0,1,.49-1.12l-2.06-.87a13,13,0,0,0-.18,3.57c.1,1,1.58,1.69,2.1.57a23.81,23.81,0,0,1,1.71-3.09l-2.06-.27c.3,1.83-.59,3.54,0,5.38a1.14,1.14,0,0,0,2.06.27c.58-1,1.13-2,1.66-3l-2.06-.86a10.07,10.07,0,0,0-.07,2.85,1.13,1.13,0,0,0,2.21.29,20.86,20.86,0,0,1,1.53-3.11l-2.05-.87q-.74,2.63-1.33,5.3a1.14,1.14,0,0,0,1.88,1.1,6,6,0,0,0,1.71-3.27c.23-1.42-1.93-2-2.17-.6Z" transform="translate(-778.27 -296.09)"/><path class="cls-5" d="M866.77,409.77l-1,.31,1.08,1.42c.49-1.55,4.2-3,5.52-3.77a1.12,1.12,0,0,0-1.13-1.94l-4.57,2.4,1.66,1.27c.3-.81,4.84-2.22,5.62-2.56,1.23-.55.31-2.29-.87-2.06-.28.06-3.83.84-3.66,1l-.23,1.77a87,87,0,0,1,7.88-4.3l-1.54-1.54-4.79,10.78,2.06.87c.77-2.06,1.6-4.09,2.51-6.1l-2.09-.56c-.41,3.3-1.1,6.55-1.81,9.8-.3,1.4,1.83,2,2.17.59q1.26-5.1,2.17-10.29c.25-1.4-1.82-2-2.17-.59l-2.35,9.49a1.13,1.13,0,0,0,2.17.6l2.35-9.5-2.17-.59q-.91,5.18-2.17,10.29l2.17.59c.76-3.44,1.46-6.89,1.89-10.39a1.13,1.13,0,0,0-2.1-.57q-1.49,3.27-2.74,6.63c-.44,1.18,1.54,2,2.06.87l4.78-10.78a1.14,1.14,0,0,0-1.54-1.54,86.86,86.86,0,0,0-7.87,4.3,1.13,1.13,0,0,0-.23,1.76c1.29,1.29,4.4-.14,5.85-.43l-.87-2.06c-2,.92-5.79,1.63-6.65,3.92-.37,1,.85,1.69,1.65,1.27l4.56-2.41-1.13-1.94c-2.19,1.28-5.73,2.47-6.56,5.11a1.15,1.15,0,0,0,1.09,1.43,3.94,3.94,0,0,0,2.16-.62c1.27-.69.13-2.63-1.14-1.94Z" transform="translate(-778.27 -296.09)"/><path class="cls-5" d="M872.58,406.51l-2.49,5.17,2,.87,1-5.84c.19-1.14-1.47-2.12-2.06-.86s-1.17,2.63-1.67,4,1.65,1.93,2.17.6a10,10,0,0,1,1.44-2.5l-2.06-.27c.64,1.59-.09,4.48-.23,6.15-.09,1.21,1.52,1.4,2.1.57,1.67-2.4,2.59-5.54,3.73-8.22l-2-.87-1,6.5a1.13,1.13,0,0,0,2.17.6l1.85-5.58-2.17-.6L872,416.3l2.21.3.55-4.11c.19-1.44-2.06-1.42-2.25,0L872,416.6c-.17,1.31,1.84,1.44,2.21.3l3.29-10.09c.45-1.38-1.72-2-2.17-.6l-1.85,5.58,2.17.6,1-6.5c.18-1.13-1.51-2.14-2.06-.86-1.14,2.68-2.06,5.81-3.73,8.22l2.09.56c.17-2.05.94-4.8.15-6.75a1.14,1.14,0,0,0-2.05-.27,12.17,12.17,0,0,0-1.67,3l2.17.6c.44-1.17.92-2.32,1.45-3.45l-2.06-.87L870,412c-.18,1.15,1.46,2.11,2.06.87l2.5-5.17c.62-1.3-1.32-2.44-1.95-1.14Z" transform="translate(-778.27 -296.09)"/><path class="cls-5" d="M874.1,404.68,870.72,417c-.39,1.43,1.66,1.92,2.17.6l1.13-2.92-2.17-.6q-1.5,5.73-2.71,11.5a1.13,1.13,0,0,0,2.17.6l1.44-5.42a1.13,1.13,0,0,0-2.17-.6,50.76,50.76,0,0,1-2.68,7.34l2.1.57a15.79,15.79,0,0,1,.37-5.39,1.13,1.13,0,0,0-2.17-.6l-1,2.34,2.21.3.45-2.26-2.17-.59-1.51,5.64a1.13,1.13,0,0,0,2.17.59l1.2-1.92-1.92-.8a22.42,22.42,0,0,1-.07,4.56c-.16,1.43,2.09,1.42,2.25,0a22.42,22.42,0,0,0,.07-4.56,1.14,1.14,0,0,0-1.92-.79,4.29,4.29,0,0,0-1.78,2.92l2.17.59,1.51-5.64a1.13,1.13,0,0,0-2.17-.59,6.76,6.76,0,0,0-.53,2.85c-.08,1.37,1.76,1.37,2.21.3l1-2.34-2.17-.6a25,25,0,0,0-.45,6c0,1,1.6,1.65,2.1.56a54.53,54.53,0,0,0,2.9-7.87l-2.17-.6-1.44,5.42,2.17.6q1.22-5.79,2.71-11.5a1.13,1.13,0,0,0-2.17-.6L870.72,417l2.17.6,3.38-12.28a1.13,1.13,0,0,0-2.17-.59Z" transform="translate(-778.27 -296.09)"/><path class="cls-5" d="M851.63,438.59l.22,3.71.74-.1-.41-2.48-.68.29.61,1.12c.23.43.88.05.65-.38l-.61-1.12c-.22-.4-.75-.11-.69.29l.4,2.48c.07.42.76.32.74-.1l-.22-3.71c0-.48-.78-.48-.75,0Z" transform="translate(-778.27 -296.09)"/><path class="cls-5" d="M867,439.6a13,13,0,0,1-.44,3.89.37.37,0,0,0,.72.2,7.24,7.24,0,0,0,.25-3.07c-.07-.47-.82-.47-.75,0a6.8,6.8,0,0,1-.22,2.87l.72.2a13.76,13.76,0,0,0,.47-4.09c0-.48-.77-.48-.75,0Z" transform="translate(-778.27 -296.09)"/><path class="cls-5" d="M878.21,403.06a7.86,7.86,0,0,1,1.16-2.08c.26-.34-.31-.77-.59-.46a7.94,7.94,0,0,1-1.92,1.59l.52.51a6.35,6.35,0,0,1,1.87-2.06c.4-.27,0-.92-.37-.64l-2.11,1.42.45.59a8.35,8.35,0,0,1,2.24-2l-.52-.51-.62,1.12a.38.38,0,0,0,.65.38l1-1.38-.69-.19a7,7,0,0,1-.43,2.08l.72.2a7.65,7.65,0,0,0,.43-2.05.38.38,0,0,0-.7-.19,13.85,13.85,0,0,0-1,2.94c-.09.47.63.67.73.2a12.51,12.51,0,0,1,.88-2.76l-.7-.19a7,7,0,0,1-.4,1.85c-.17.46.56.65.72.2a7.71,7.71,0,0,0,.46-2.28c0-.4-.5-.46-.7-.19l-1,1.38.65.38.62-1.13a.37.37,0,0,0-.51-.51,8.92,8.92,0,0,0-2.39,2.11c-.24.3.07.85.46.59l2.1-1.43-.37-.64a7.12,7.12,0,0,0-2.15,2.32.38.38,0,0,0,.51.52,8.74,8.74,0,0,0,2.07-1.71l-.59-.45a8.4,8.4,0,0,0-1.23,2.26c-.16.46.56.65.72.2Z" transform="translate(-778.27 -296.09)"/><path class="cls-4" d="M882.7,399.2l.21-2c.08-.84-1.29-1-1.47-.2l-.45,2c-.22.94,1.23,1.34,1.44.4l.45-2-1.47-.2-.21,2a.75.75,0,1,0,1.5,0Z" transform="translate(-778.27 -296.09)"/><path class="cls-4" d="M836.15,396.47a2.41,2.41,0,0,1,.51.82c.32.9,1.74.54,1.45-.4l-.74-2.33c-.29-.92-1.73-.53-1.44.4l.73,2.33,1.45-.4a4.33,4.33,0,0,0-.9-1.48c-.65-.71-1.71.35-1.06,1.06Z" transform="translate(-778.27 -296.09)"/><path class="cls-3" d="M832.74,478a4.18,4.18,0,0,1,.18-1.89c.42-1.29-1.36-1.85-2.06-.87a8.73,8.73,0,0,0-1.17,2.37c-.39,1.2,1.49,2,2.06.87a14.16,14.16,0,0,0,1-2.81c.29-1.18-1.52-2.08-2.06-.87l-.76,1.71,2.1.57a4.16,4.16,0,0,1,.15-1.53,1.13,1.13,0,0,0-1.88-1.09l-.46.5,1.88.5c-.08-.23-.09-.24,0,0l-2.06-.87-1,3.58h2.17a2,2,0,0,1,.17-1.28l-2.17-.6-.2,1.49a1.14,1.14,0,0,0,.65,1.33,1.11,1.11,0,0,0,1.4-.46l.2-.4c.65-1.29-1.29-2.43-1.94-1.14l-.2.4,2.06.87.2-1.49a1.13,1.13,0,0,0-2.17-.6,4,4,0,0,0-.17,2.48,1.14,1.14,0,0,0,2.17,0l1.05-3.58a1.13,1.13,0,0,0-2.06-.87,2,2,0,0,0-.17,1.77,1.14,1.14,0,0,0,1.88.5l.46-.5-1.88-1.1a6.15,6.15,0,0,0-.23,2.13c.07,1,1.6,1.68,2.1.57l.75-1.71-2-.87a12,12,0,0,1-.81,2.27l2.05.87a6.64,6.64,0,0,1,.95-1.83l-2.06-.87a5.7,5.7,0,0,0-.26,2.49,1.17,1.17,0,0,0,1.12,1.13,1.14,1.14,0,0,0,1.13-1.13Z" transform="translate(-778.27 -296.09)"/><path class="cls-3" d="M889.94,403.2l-.82-1.45L887.46,403c6.07,4.23,13.22,6.5,19.19,10.88,1.17.86,2.29-1.1,1.14-1.94-6-4.38-13.13-6.65-19.19-10.88a1.13,1.13,0,0,0-1.65,1.27,4.67,4.67,0,0,0,1.4,2.44c1,1.08,2.55-.51,1.59-1.59Z" transform="translate(-778.27 -296.09)"/><path class="cls-3" d="M931.33,488.53a62.62,62.62,0,0,0,.12-7.75c-.06-1.45-2.31-1.45-2.25,0a62.62,62.62,0,0,1-.12,7.75c-.11,1.45,2.14,1.44,2.25,0Z" transform="translate(-778.27 -296.09)"/><path class="cls-5" d="M824.63,482.07c.91-2.81,1.74-5.65,2.41-8.53s.7-7.1,2.49-9.41l-1.76-.23c1.42,2.93-.15,6.69-.83,9.64s-1,6.51-3,8.87l1.76.22-.54-.73c-.86-1.14-2.82,0-2,1.14l.55.73a1.15,1.15,0,0,0,1.77.23c2.64-3.1,3-7.38,3.93-11.23.8-3.42,1.9-6.7.29-10a1.13,1.13,0,0,0-1.77-.22c-1.74,2.24-1.89,4.78-2.44,7.51a102.16,102.16,0,0,1-3,11.42c-.45,1.38,1.72,2,2.17.6Z" transform="translate(-778.27 -296.09)"/><path class="cls-5" d="M828.46,470.8l2.25-4.53-2.06-.87a39.09,39.09,0,0,0-2.1,7.89c-.23,1.42,1.94,2,2.17.6a39.09,39.09,0,0,1,2.1-7.89c.45-1.18-1.49-2-2.06-.87l-2.24,4.54c-.64,1.29,1.3,2.43,1.94,1.13Z" transform="translate(-778.27 -296.09)"/><path class="cls-5" d="M877.09,456.8q2.55,7.9,5.14,15.8c.67,2,1.23,5,4,4.19a1.14,1.14,0,0,0,.79-1.38,73.4,73.4,0,0,1-3.54-10.71c-.74-3-1.09-6.08-3-8.65-.85-1.15-2.8,0-1.94,1.14,2,2.73,2.26,6.19,3.1,9.4a74,74,0,0,0,3.22,9.41l.78-1.38c-.74.21-5.89-17-6.36-18.42s-2.62-.79-2.17.6Z" transform="translate(-778.27 -296.09)"/></g><g id="Layer_2" data-name="Layer 2"><path d="M793.3,419.38c2.83-6.67,9-4.8,14.55-6.47,4-1.2,7.9-3.11,11.78-4.68,5.85-2.36,13.08-4.21,15.75-10.57,1.32-3.15,1.44-6.6,1.45-10,0-3.71.39-8-.42-11.59-.77-3.44-3.61-5.69-5.54-8.51a36.08,36.08,0,0,1-5.53-13.71c-.09-.47-.82-.27-.72.2,1.34,7,4.38,12.25,8.65,17.76,3.39,4.37,2.82,10.54,2.81,15.85,0,4.95-.34,9.63-4,13.27-3.44,3.41-8.21,4.76-12.63,6.55-3.86,1.56-7.77,3.51-11.78,4.68-6.14,1.79-12-.18-15,6.82-.18.44.46.82.65.37Z" transform="translate(-778.27 -296.09)"/><path d="M824.61,352.45a13.16,13.16,0,0,1-2.12-17.52c.28-.4-.37-.77-.65-.38A13.91,13.91,0,0,0,824.08,353c.36.32.89-.21.53-.53Z" transform="translate(-778.27 -296.09)"/><path d="M823.83,336.06a48,48,0,0,1,10.63-26.82c6.29-7.62,14.47-10,23.84-11.67,11.09-2,20.65.63,26.9,10.46,5.15,8.08,6.07,17.94,7,27.24a.38.38,0,0,0,.64.26l2.53-2.13c.37-.31-.16-.84-.53-.53-3.16,2.66-2.46-3.33-2.74-5.49a77.65,77.65,0,0,0-1.41-7.87,38.21,38.21,0,0,0-5.61-13.06c-5.56-7.92-13.73-11.23-23.27-10.17-10.32,1.15-20.37,3.71-27.31,11.8a48.7,48.7,0,0,0-11.39,28c0,.48.71.48.75,0Z" transform="translate(-778.27 -296.09)"/><path d="M894.5,333.47q5.49,1.69,4.19,5.54a9.37,9.37,0,0,1-1.27,3.64c-.59,1.25-1.25,2.48-1.93,3.69a77.83,77.83,0,0,1-4.5,7c-.28.39.37.77.65.38,3-4.2,7.45-10,8-15.3.32-3.34-1.81-6.26-5.31-5.68-.48.08-.27.8.2.73Z" transform="translate(-778.27 -296.09)"/><path d="M890.07,354.38a45,45,0,0,0-2.8,9.26,25.74,25.74,0,0,1-2,6.26c-1.15,2.17-2.95,3.15-4.52,4.87-1.86,2-1.57,3.81-1.56,6.59l0,15.6a.38.38,0,0,0,.75,0l0-12.84c0-4.17-.51-6.12,2.63-9.76.63-.74,1.33-1.12,2-1.89,4-4.92,3.52-12.16,6.14-17.72.21-.43-.44-.81-.65-.37Z" transform="translate(-778.27 -296.09)"/><path d="M792.49,419.25l-9.34,43.56c-1.5,7-3.33,14.08-4.41,21.19-.68,4.54-.81,9.26,1,13.58,4.13,10,14.51,9.54,23.3,6.61,13.69-4.57,27.13-10.15,40.64-15.23.44-.17.25-.89-.2-.72l-34.1,12.81c-5.17,1.95-10.76,4.49-16.4,4.43-8-.08-13.11-5.84-13.85-13.56-.57-5.88,1.11-11.84,2.33-17.54l3.86-18,7.91-36.93c.1-.47-.62-.67-.72-.2Z" transform="translate(-778.27 -296.09)"/><path d="M843,489.91l48.86,14.88,12.43,3.78c3.24,1,6.73,2.54,10.14,2.74a13.12,13.12,0,0,0,5.86-1.3c2.57-1,5.83-1.77,8.05-3.53,4-3.18,4.37-8.89,3.89-13.56-.39-3.89-1.19-7.68-1.14-11.62.06-4.23.5-8.39,0-12.62-.93-7.85-3.19-15.62-4.93-23.33-1.59-7-2.27-15.79-5.39-22.33-2.89-6-10.89-10.22-16.35-13.53a97.67,97.67,0,0,0-11.65-6c-4.1-1.79-8.1-3.54-10.56-7.5-.25-.4-.9,0-.65.38,3.43,5.51,9.84,7.13,15.36,9.82a96.08,96.08,0,0,1,10.94,6.35c4.77,3.18,10.83,6.6,12.8,12.28,2.78,8.07,3.94,17,5.81,25.32,1.12,4.95,2.41,9.89,3.29,14.88.92,5.18.73,10.07.6,15.29-.22,9.53,5.54,22.83-6.26,27.38-4.28,1.65-7.64,3.3-12.44,2.31-4.33-.9-8.66-2.62-12.9-3.92l-55.56-16.91a.37.37,0,0,0-.2.72Z" transform="translate(-778.27 -296.09)"/><path d="M880.67,396.76a427.18,427.18,0,0,1-19.61,61.71c-.18.45.54.64.72.2A425.94,425.94,0,0,0,881.39,397c.12-.47-.61-.67-.72-.2Z" transform="translate(-778.27 -296.09)"/><path d="M780.51,479.83c5.32-1.39,10.62-2.92,16-4.19,7.47-1.76,12.92.54,19.41,4.1,7.79,4.27,15.37,9.15,24.57,9a.38.38,0,0,0,0-.75c-11.69.21-20.52-7.85-30.77-12.16-9.62-4.06-19.86.8-29.38,3.3a.37.37,0,0,0,.2.72Z" transform="translate(-778.27 -296.09)"/><path d="M800.17,474.53c3.38-6.75,12.73-9.92,19.79-10.07,1.84,0,4-.7,5.23.79s.08,3.53-.38,5.33c-.26,1.06-3.51,10.23-3.08,10.75-.31-.37-.84.16-.53.53l.48.59a.38.38,0,0,0,.63-.17c1.07-3.51,2.08-7,3-10.61.6-2.33,1.85-5.16,1.72-7.57a.4.4,0,0,0-.27-.37c-2.31-.72-6.18-.1-8.54,0a23.28,23.28,0,0,0-8,2c-4.43,1.81-8.51,4-10.73,8.39-.21.43.44.81.65.38Z" transform="translate(-778.27 -296.09)"/><path d="M826.5,465.19l1.2-2.83c1.86-.17,2.84.89,2.95,3.16.25,1.83-.93,4.75-1.36,6.54-.51,2.16-1.1,4.31-1.74,6.43q-.49,1.61-1,3.18a2,2,0,0,0-.15,2.58c.15-.46-.58-.65-.72-.19l-.25.76c-.15.46.56.64.72.2A118.22,118.22,0,0,0,830,472.25c.5-2.1,2.57-7.14,1.58-9.21-.44-.93-2.58-1.71-3.48-1.56-1.58.26-1.6,1.75-2.27,3.33-.18.44.46.82.65.38Z" transform="translate(-778.27 -296.09)"/><path d="M832.11,462.72c27.12,4.95,52.52,19.09,80.63,17.94.48,0,.48-.77,0-.75-28,1.15-53.38-13-80.43-17.91-.47-.08-.67.64-.2.72Z" transform="translate(-778.27 -296.09)"/><path d="M842.23,463.68c9.11-2.52,18.32-4.69,27.62-6.41,2.18-.41,5.25-1.51,7.45-1.29l4.57,1.42c.38,1.22.74,2.45,1.1,3.67,1.43,4.91,2.73,9.85,3.95,14.82a.37.37,0,0,0,.72-.2c-1.45-5.91-2.43-13-5-18.49-.92-1.93-1.4-2.3-3.63-2.24-5.77.15-12,2.05-17.67,3.25-6.47,1.38-12.89,3-19.27,4.74a.38.38,0,0,0,.2.73Z" transform="translate(-778.27 -296.09)"/><path d="M876.57,457.33q2.38,8.37,5.22,16.59c.16.46.88.26.72-.2q-2.84-8.22-5.22-16.59a.37.37,0,0,0-.72.2Z" transform="translate(-778.27 -296.09)"/><path d="M882.84,456.78c1.28-2.39,7.71-.28,10,.34,3.9,1.06,6.42,3.4,8.86,6.48a36.75,36.75,0,0,1,7.25,16.26c.09.47.82.27.73-.2-1.47-7.75-5.34-16.6-12-21.28-2.77-1.94-13.37-5.8-15.43-2-.22.42.42.8.65.38Z" transform="translate(-778.27 -296.09)"/><path d="M838.16,395.68c1.39,22.5,14,42,18.71,63.74.1.47.83.28.73-.2-4.66-21.67-17.3-41.11-18.69-63.54,0-.48-.78-.48-.75,0Z" transform="translate(-778.27 -296.09)"/><path d="M831.09,401.87a113.77,113.77,0,0,0-3.31,18.94c-.32,4.62,1.94,6.57,4.85,9.94,4.77,5.54,11.48,12.73,12,20.41.27,3.83-1.69,7.52,1,10.81.3.38.83-.16.53-.53-2.72-3.38-.15-9.57-1.34-13.69-1.3-4.49-4.33-8.37-7.13-12-3.24-4.2-9.16-8.73-9.18-14.28,0-6.35,1.85-13.25,3.34-19.39a.37.37,0,0,0-.72-.2Z" transform="translate(-778.27 -296.09)"/><path d="M885.58,400.72c2.22,5.68,5.11,11.44,6.75,17.31.69,2.49.84,4.6-.73,6.71a25.72,25.72,0,0,1-2.46,2.31,57.68,57.68,0,0,0-5,5.82,106.32,106.32,0,0,0-9.08,13.93c-1.7,3.16-2.32,6.21-.29,9.32.26.4.91,0,.64-.38-3.67-5.63,3.34-13.79,6.43-18.35,3.29-4.87,7.49-8.43,11.13-12.87,1.91-2.34,1.12-3.95.08-6.69-2.2-5.79-4.49-11.54-6.74-17.31-.18-.45-.9-.25-.73.2Z" transform="translate(-778.27 -296.09)"/><path d="M844.39,416.92a97.17,97.17,0,0,0,14.36-6c.43-.22,0-.87-.38-.65a95.84,95.84,0,0,1-14.18,6c-.45.15-.26.87.2.72Z" transform="translate(-778.27 -296.09)"/><path d="M839.47,398.63c1.59,3,4.7,4.43,7.63,5.91,3.72,1.88,7.46,3.6,10.79,6.15.38.3.75-.35.37-.64a50.77,50.77,0,0,0-8.65-5.1c-3.34-1.65-7.67-3.25-9.49-6.69-.22-.43-.87-.05-.65.37Z" transform="translate(-778.27 -296.09)"/><path d="M859.14,409.93c3.15-2.78,7.24-3.61,11-5.29a51.73,51.73,0,0,0,10.23-6.19c.38-.29,0-.94-.37-.64a51.93,51.93,0,0,1-12.92,7.28c-3,1.17-6,2.11-8.45,4.31-.36.32.17.85.53.53Z" transform="translate(-778.27 -296.09)"/><path d="M859.78,410.37c-.12-.3,4.73.77,5.22.94a27.4,27.4,0,0,1,3.75,1.69,72.48,72.48,0,0,1,6.33,3.93c.4.27.78-.38.38-.65a50,50,0,0,0-9.77-5.51c-1.51-.57-5.19-2.18-6.64-.81a.38.38,0,0,0-.09.37l.1.24c.18.44.91.24.72-.2Z" transform="translate(-778.27 -296.09)"/><path d="M851.15,417.92c1.49-1.59,3.13-3.91,5-5.09,1.26-1.9,3.06-2.07,5.4-.53.49.72,1,1.46,1.45,2.2,1.07,1.56,3.6,3.46,3.53,5.29,0,1-1.51,2.45-1.66,3.69A9.91,9.91,0,0,0,865,426c.31,3.05.83,6,1,9.08,0,.54-.08,6.53-.22,6.44-.4-.28-.77.37-.38.64l.9.64a.38.38,0,0,0,.57-.33,97.37,97.37,0,0,0-.42-11.07c-.44-4.39-1.64-8.37,1.43-12.25a.38.38,0,0,0-.08-.59c-2.84-1.81-4.11-4.63-6.08-7.2-.54-.7-1.31-2-2.3-2.15-2.38-.34-7.43,6.64-8.85,8.15-.33.35.2.88.53.53Z" transform="translate(-778.27 -296.09)"/><path d="M850.47,418.11c.9,2.07,2.62,4,3.23,6.18s-.28,5.36-.58,7.72a76.07,76.07,0,0,0-.49,12.8.38.38,0,0,0,.75,0c-.25-6.08.92-11.75,1.28-17.76.21-3.7-2.13-6.08-3.54-9.32-.2-.44-.84-.06-.65.38Z" transform="translate(-778.27 -296.09)"/><path d="M823.83,336.51a5.41,5.41,0,0,0,.85,4.29.38.38,0,0,0,.51.13,17.36,17.36,0,0,0,6.36-5.3,16.65,16.65,0,0,0,2-3.61c.38-1,.46-3.06,1.05-3.84,1.57-2.07,9.72-.27,12.52-.76a60.15,60.15,0,0,0,11.9-3.86,100.49,100.49,0,0,0,9.85-4.65c3.25-1.75,5.19-4.17,9.25-1.53,1.54,1,3,3.06,4.13,4.47,3.24,4,4.37,7.82,4.72,13,.17,2.36.42,4.2,2.31,5.74a.39.39,0,0,0,.53,0,7.84,7.84,0,0,0,2.11-3.85.38.38,0,0,0-.73-.19l-3.2.8-.27-2.5c-.06-.87,0-1.76-.08-2.64a17.32,17.32,0,0,0-.94-4.37,25.43,25.43,0,0,0-4.9-7.65c-1.27-1.46-3.68-5-5.77-5.38-3-.58-7.48,3.49-9.93,4.73a94.21,94.21,0,0,1-14.88,6.07,24.43,24.43,0,0,1-9.35,1.34c-1.8-.16-3.87-1.35-5.64-1.08s-1.84,1.14-2.49,2.73c-.94,2.31-1.31,4.52-2.83,6.62-.93,1.29-7.21,8-6.33,1.52.06-.47-.66-.68-.72-.2Z" transform="translate(-778.27 -296.09)"/></g></svg>